<?xml version="1.0" encoding="utf-8"?>
<!-- Generator: Adobe Illustrator 16.0.0, SVG Export Plug-In . SVG Version: 6.00 Build 0)  -->
<!DOCTYPE svg PUBLIC "-//W3C//DTD SVG 1.1//EN" "http://www.w3.org/Graphics/SVG/1.1/DTD/svg11.dtd">
<svg version="1.1" xmlns="http://www.w3.org/2000/svg" xmlns:xlink="http://www.w3.org/1999/xlink" x="0px" y="0px"
	 width="703.608px" height="585.175px" viewBox="0 0 703.608 585.175" enable-background="new 0 0 703.608 585.175"
	 xml:space="preserve">
<g id="Layer_5">
</g>
<g id="Layer_6">
</g>
<g id="Layer_4">
	<g>
		<g>
			<polygon fill="#DDE2FF" points="99.053,369.809 0,312.622 136.918,233.572 235.972,290.76 			"/>
			<path fill="#51DFC7" d="M65.535,287.884c6.082-3.512,15.944-3.511,22.027,0c6.083,3.513,6.083,9.206,0,12.719
				c-6.083,3.511-15.945,3.511-22.027,0C59.451,297.09,59.451,291.396,65.535,287.884z"/>
			<path fill="#51DFC7" d="M91.202,302.704c6.083-3.513,15.946-3.513,22.027,0c6.083,3.511,6.083,9.206,0.001,12.717
				c-6.083,3.513-15.946,3.513-22.029,0C85.118,311.91,85.118,306.215,91.202,302.704z"/>
			<path fill="#51DFC7" d="M116.87,317.522c6.082-3.511,15.944-3.511,22.027,0c6.083,3.513,6.083,9.206,0,12.719
				c-6.083,3.511-15.945,3.511-22.027,0C110.787,326.728,110.787,321.035,116.87,317.522z"/>
			<path fill="#FFFFFF" d="M85.092,291.617l-13.091,7.559l-3.03-1.75l10.66-6.154l-2.618-1.512l2.431-1.403L85.092,291.617z"/>
			<path fill="#FFFFFF" d="M102.732,314.068l-2.468,1.425l-9.893-5.711l1.964-1.134l9.818,0.161
				c2.262,0.033,3.142-0.237,3.776-0.604c1.03-0.594,0.917-1.35-0.467-2.148c-1.123-0.649-2.506-0.951-4.021-0.812l-0.786-2.093
				c2.487-0.271,5.273,0.237,7.63,1.597c2.917,1.685,3.365,3.671,0.99,5.042c-1.272,0.735-2.787,1.199-6.321,1.124l-5.853-0.098
				L102.732,314.068z"/>
			<path fill="#FFFFFF" d="M130.608,328.391c-2.208,1.274-5.928,1.457-9.649-0.691c-1.833-1.059-3.217-2.44-3.591-3.693l3.498-0.659
				c0.242,1.004,1.197,2.051,2.562,2.84c1.515,0.875,3.067,1.059,4.133,0.443c0.992-0.572,0.878-1.349-0.843-2.343l-1.382-0.798
				l2-1.155l5.74-0.206l-5.571-3.217l2.431-1.404l9.163,5.29l-1.964,1.135l-6.321,0.237
				C132.795,325.746,132.534,327.279,130.608,328.391z"/>
			<g>
				<polygon fill="#51DFC7" points="134.793,272.928 134.793,272.928 134.793,272.928 				"/>
				<path fill="#51DFC7" d="M159.614,286.954l-0.264,0.152l-10.292-5.942l0.105-0.061c0.053-0.031,0.117-0.055,0.17-0.085
					c7.881-4.551,7.881-11.929-0.001-16.479l10.294-5.942C173.187,266.426,173.175,279.124,159.614,286.954z"/>
				<path fill="#FFDB57" d="M159.35,287.106c-6.326,3.58-14.428,5.473-22.638,5.705l-0.815-8.397c0.043,0,0.085-0.001,0.127,0
					c4.729-0.128,9.384-1.216,13.034-3.25L159.35,287.106z"/>
				<path fill="#FFFFFF" d="M159.625,258.596l-10.294,5.942c-4.273-2.468-9.964-3.591-15.561-3.389
					c-0.042,0-0.074,0.006-0.116,0.006l-0.805-8.393C142.466,252.416,152.283,254.357,159.625,258.596z"/>
				<path fill="#90C2FC" d="M133.655,261.156c-4.687,0.189-9.278,1.312-12.865,3.383l-0.264,0.152l-10.282-5.936
					c0.085-0.049,0.168-0.11,0.254-0.159c6.22-3.591,14.218-5.533,22.353-5.833L133.655,261.156z"/>
				<path fill="#FF64A7" d="M136.711,292.811c-9.436,0.256-19.01-1.692-26.214-5.851l10.292-5.944
					c4.147,2.394,9.658,3.537,15.106,3.397L136.711,292.811z"/>
				<path fill="#6C6FDA" d="M120.79,281.016l-10.292,5.944c-13.477-7.782-13.562-20.364-0.254-28.205l10.282,5.936
					C112.909,269.247,112.994,276.516,120.79,281.016z"/>
			</g>
			<polygon fill="#A9A9FF" points="209.232,293.951 181.974,278.213 185.519,276.168 212.775,291.904 			"/>
			<polygon fill="#A9A9FF" points="201.737,298.278 174.479,282.541 178.022,280.495 205.28,296.232 			"/>
			<polygon fill="#A9A9FF" points="194.241,302.604 166.984,286.868 170.527,284.822 197.785,300.56 			"/>
			<polygon fill="#A9A9FF" points="186.746,306.932 159.489,291.195 163.032,289.149 190.29,304.886 			"/>
			<polygon fill="#A9A9FF" points="179.251,311.26 151.995,295.522 155.538,293.476 182.795,309.213 			"/>
			<polygon fill="#A9A9FF" points="171.756,315.587 144.5,299.85 148.043,297.803 175.3,313.541 			"/>
			<path fill="#FF64A7" d="M61.087,310.282c0-0.716-1.004-1.295-2.243-1.295h-10.81v-3.041c0-0.716-1.004-1.296-2.243-1.296
				c-1.24,0-2.245,0.58-2.245,1.296v4.335c0,0.358,0.251,0.682,0.658,0.917c0.405,0.233,0.966,0.379,1.587,0.379h13.053
				C60.083,311.578,61.089,310.998,61.087,310.282z"/>
			<path fill="#FF64A7" d="M86.205,324.785c0-0.716-1.003-1.296-2.243-1.296h-10.81v-3.041c0-0.714-1.004-1.294-2.243-1.294
				c-1.239,0-2.244,0.58-2.244,1.294v4.337c0,0.358,0.251,0.682,0.658,0.915c0.406,0.235,0.966,0.379,1.586,0.379h13.053
				C85.201,326.079,86.207,325.499,86.205,324.785z"/>
			<path fill="#FF64A7" d="M111.324,339.286c0-0.716-1.004-1.295-2.244-1.295H98.27v-3.041c0-0.716-1.004-1.296-2.243-1.296
				s-2.245,0.58-2.245,1.296v4.335c0,0.357,0.251,0.682,0.658,0.916c0.406,0.235,0.967,0.38,1.587,0.38h13.053
				C110.318,340.582,111.324,340.001,111.324,339.286z"/>
		</g>
		<g>
			<path fill="#E6E7E8" d="M74.021,246.851c5.803,0.862,33.875-10.784,33.875-10.784c16.988-17.733,55.841-14.968,51.243-29.128
				c-3.26-10.038-41.699-8.372-64.866,6.243C73.505,226.286,68.218,245.988,74.021,246.851z"/>
			<path fill="#0F236C" d="M90.81,227.045c0,0-1.44,3.852-1.288,6.054c0.153,2.204,1.288,2.988,1.288,2.988
				s16.763,2.338,17.087-0.02c0.324-2.36-11.161-7.481-11.161-7.481L90.81,227.045z"/>
			<path fill="#FFDB41" d="M103.18,102.363l3.268,3.399c0,0,9.331,29.395,9.176,31.922c-0.158,2.526-3.411,3.155-5.453,2.477
				c-2.042-0.678-8.282-18.842-8.282-18.842L103.18,102.363z"/>
			<path fill="#6C5CE7" d="M103.18,102.363l3.268,3.399c0,0,9.331,29.395,9.176,31.922c-0.158,2.526-3.411,3.155-5.453,2.477
				c-2.042-0.678-8.282-18.842-8.282-18.842L103.18,102.363z"/>
			<path fill="#FDC8A8" d="M91.174,219.864l-0.303,8.107c0,0-0.093,1.924,2.509,1.949c2.602,0.024,3.319-2.271,3.319-2.271
				l1.37-12.136L91.174,219.864z"/>
			<path fill="#FDC8A8" d="M73.878,227.778l-1.243,7.307c0,0,0.565,2.554,2.891,2.113c2.325-0.44,2.906-3.623,2.906-3.623
				l1.107-7.77L73.878,227.778z"/>
			<path fill="#0F236C" d="M72.824,233.907c0,0,0.314,2.096,2.181,1.907c1.866-0.188,3.427-2.238,3.427-2.238l0.792,8.403
				c0,0,0.101,5.596-3.128,6.891c-3.229,1.293-4.203-5.814-4.203-5.814L72.824,233.907z"/>
			<path fill="#00B894" d="M75.855,150.019c0,0,1.068,11.724,1.768,13.864c0.701,2.139-0.055,30.958-0.055,30.958
				s-5.191,34.249-4.812,36.092c0.38,1.842,5.6,0.715,6.765-1.187c1.166-1.902,9.464-30.39,10.393-38.474s3.235-17.096,3.235-17.096
				s0.219,12.939,0.291,14.794c0.071,1.854-2.66,35.701-2.66,35.701s0.19,0.981,3.326,1.325c1.025,0.112,2.801-0.303,3.495-1.546
				c1.727-3.09,2.086-9.717,2.086-9.717s7.499-38.671,6.727-42.665c-0.772-3.996,0.055-30.958,0.055-30.958l-5.017-1.667
				L75.855,150.019z"/>
			<path fill="#6C5CE7" d="M85.885,103.977c0,0,10.14-3.702,14.389-2.809c4.249,0.891,5.759,3.643,6.163,5.032
				c0.405,1.39-0.351,56.699-0.351,56.699s-33.633,13.634-32.387,5.09c1.088-7.459,0.913-19.805,1.035-21.347
				c0.073-0.934,0.13-1.87,0.063-2.805l-2.141-30.023L85.885,103.977z"/>
			<path fill="#4A38CB" d="M104.112,128.873l-21.119,5.07l-5.299-22.34l-0.536-1.136l-4.5,3.346l2.141,30.023
				c0.066,0.936,0.009,1.871-0.063,2.805c-0.101,1.29,0.292,3.69,3.737,5.948c6.931-3.906,20.853-12.286,26.338-18.333
				C107.948,130.796,104.112,128.873,104.112,128.873z"/>
			<path fill="#6C5CE7" d="M83.217,123.596c0,0,5.163-18.661,2.668-19.62c0,0-14.104,5.304-15.709,9.229
				c-1.606,3.925-1.098,7.333-2.448,13.356c0,0-3.193,12.943-2.54,16.254c0.653,3.312,4.227,4.932,12.342,1.285
				c8.115-3.647,28.325-12.499,28.325-12.499l-0.316-3.675l-24.1,3.556L83.217,123.596z"/>
			<path fill="#FDC8A8" d="M119.48,136.655c0.079,2.087-4.506,4.241-6.593,4.321c-2.087,0.08-1.443,1.035-2.716-0.815
				c-1.184-1.72,3.622-4.629,5.709-4.708C117.967,135.372,119.401,134.568,119.48,136.655z"/>
			<path fill="#FDC8A8" d="M112.016,128.999c0.08,2.087-8.747,3.991-8.827,1.904c-0.08-2.087,2.091-3.305,4.067-3.98
				C110.312,125.878,111.936,126.912,112.016,128.999z"/>
			<polygon fill="#0F236C" points="106.131,141.473 106.766,142.003 120.45,136.908 118.579,131.888 117.944,131.356 			"/>
			
				<rect x="109.36" y="129.113" transform="matrix(-0.349 -0.9371 0.9371 -0.349 23.3097 289.0206)" fill="#6CDAEA" width="5.356" height="14.603"/>
			<path fill="#FDC8A8" d="M114.44,132.292l-2.881-4.057c-0.339-0.478-1.002-0.592-1.48-0.251c-0.479,0.339-0.591,1.003-0.251,1.48
				l2.879,4.059c0.34,0.479,1.002,0.59,1.482,0.251C114.666,133.435,114.778,132.772,114.44,132.292z"/>
			<g>
				<path fill="#FDC8A8" d="M83.738,107.456c-0.045,1.977,2.345,3.06,5.607,3.109c0,0,6.301-0.24,6.199-2.903l-0.171-14.947
					c0.043-1.973-2.027-3.603-5.29-3.661l0,0c-3.257-0.056-4.877,1.523-4.927,3.506L83.738,107.456z"/>
			</g>
			<path fill="#FDC8A8" d="M95.504,100.51l-11.039-2.371l-0.216,2.407c2.375,2.111,6.183,4.854,7.41,5.121
				c1.133,0.249,3.957-1.117,4.008-1.77L95.504,100.51z"/>
			<path fill="#FDC8A8" d="M96.655,86.749l1.219-0.66c1.012-0.539,1.899-0.009,2.104,1.181c0.35,2.041-1.34,2.305-1.163,3.91
				l-2.646-0.155L96.655,86.749z"/>
			<path fill="#FDC8A8" d="M82.239,91.306l-1.371-0.213c-1.135-0.167-1.791,0.627-1.587,1.819c0.355,2.039,1.948,1.651,2.516,3.402
				l2.333-1.146L82.239,91.306z"/>
			<path fill="#FDC8A8" d="M98.789,96.288c-0.697,2.899-2.781,7.094-4.725,7.672c-2.179,0.64-9.08-2.07-10.251-3.918
				c-3.232-5.107-6.189-19.325,4.359-20.6c2.813-0.338,7.501-2.326,9.435,2.734C98.836,85.397,99.57,93.019,98.789,96.288z"/>
			<path fill="#FDC8A8" d="M98.789,96.288c0.782-3.269,0.047-10.891-1.183-14.111c-1.934-5.06-6.622-3.072-9.435-2.734
				c-1.951,0.236-3.465,0.854-4.62,1.734c0.106,0.046,0.21,0.099,0.31,0.162c1.867,1.167,3.561,2.619,4.954,4.327
				c0.108,0.133,0.459-0.449,0.515-0.314c0.689,0.416,2.596,1.099,3.257,1.143c0.985,0.061,4.63-1.345,5.164,0.238
				c1.096,3.248,1.315,6.181,0.785,8.706c-1.363,6.467-4.471,8.523-4.471,8.523C96.007,103.381,98.092,99.187,98.789,96.288z"/>
			<path fill="#0F236C" d="M99.062,96.191c0.986,2.315-2.309,8.736-4.512,9.392c-2.47,0.726-10.626-2.592-11.522-4.905
				c-1.634-4.222-1.595-4.927-0.367-4.991c0.797-0.041,3.147,2.923,5.136,3.097c1.42,0.123,0.653-2.51,5.264-2.584
				c3.392-0.056,2.837,0.613,3.772,1.056C98.236,97.921,98.537,94.957,99.062,96.191z"/>
			<g>
				<path fill="#0F236C" d="M89.453,76.189c0.697-0.97-0.138,4.071,1.933,2.399c0.929-0.75,3.321-0.284,4.743,1.894l-9.639,3.276
					c-0.616,0.052-1.234,0.105-1.851,0.179c-1.45,0.17-2.606,1.526-2.678,3.13c-0.854-0.368-1.711-0.731-2.558-1.166
					C79.116,77.106,87.061,79.52,89.453,76.189z"/>
			</g>
			<path fill="#0F236C" d="M95.342,75.999c0.425,1.072-0.417,2.623-1.88,3.466c-1.462,0.84-4.203-0.383-4.631-1.455
				c-0.424-1.071,1.386-0.261,2.796-1.843C92.791,74.859,94.913,74.928,95.342,75.999z"/>
			<path fill="#0F236C" d="M95.744,85.08c2.383-0.347,3.13,4.482,3.13,4.482c0.662-0.147,0.527-3.759-0.49-6.552
				C97.746,81.262,94.022,85.33,95.744,85.08z"/>
			<path fill="#0F236C" d="M95.744,85.08c2.383-0.347,3.13,4.482,3.13,4.482c0.662-0.147,0.527-3.759-0.49-6.552
				C97.746,81.262,94.022,85.33,95.744,85.08z"/>
			<path fill="#0F236C" d="M98.152,80.873c0.4,1.593,0.088,3.425-2.407,4.651c-4.479,2.203-5.817-0.817-12.106,1.28
				c-0.54,0.18,0.544,1.453-1.087,3.115c-1.665,1.696-0.877,4.701-0.877,4.701c-0.932,0.079-1.836-6.756-2.014-7.462
				c-0.858-3.412,2.586-7.586,7.69-9.319C92.457,76.102,97.292,77.461,98.152,80.873z"/>
			<path fill="#0F236C" d="M81.502,92.631c0-0.007-1.075-5.416-1.084-6.992c-0.015-2.219,0.009-3.765,1.964-5.113
				c0.947-0.651,3.881-1.203,4.978-1.45c1.388-0.312,2.146-1.069,3.083-2.066c-0.207,0.086-0.408,0.147-0.595,0.195
				c-0.081-0.769-0.104-1.422-0.396-1.016c-2.393,3.33-10.337,0.917-10.049,9.714c0.044,0.023,0.089,0.044,0.134,0.066
				c-0.01,0.404,0.024,0.801,0.122,1.188c0.178,0.706,1.082,7.541,2.014,7.462C81.674,94.62,81.517,93.615,81.502,92.631z"/>
		</g>
		<g>
			<path fill="#FF7A2D" d="M290.966,236.763l-35.409,6.838l-35.411-6.838c0,0-0.124,4.121,13.282,33.47
				c0.176,0.532,0.429,1.056,0.721,1.575c0.023,0.051,0.044,0.098,0.069,0.15l0.019-0.004c1.08,1.846,2.87,3.585,5.418,5.055
				c8.846,5.106,23.187,5.106,32.032,0c3.821-2.207,5.983-5.004,6.503-7.882C291.096,240.764,290.966,236.763,290.966,236.763z"/>
			<path fill="#FF9D2D" d="M230.452,220.395c13.928-8.041,36.508-8.041,50.437,0c13.927,8.042,13.927,21.078,0,29.12
				c-13.927,8.041-36.508,8.041-50.437,0C216.525,241.473,216.525,228.436,230.452,220.395z"/>
			<path fill="#1D2C54" d="M255.672,250.611c-8.674,0-16.754-1.907-22.752-5.37c-5.072-2.929-7.98-6.677-7.98-10.288
				c0-3.609,2.908-7.359,7.98-10.287c5.909-3.414,14.203-5.37,22.751-5.37c8.673,0,16.752,1.907,22.75,5.37
				c5.071,2.927,7.98,6.677,7.98,10.287c0,3.61-2.909,7.36-7.98,10.288C272.512,248.654,264.218,250.611,255.672,250.611z"/>
			<path fill="#00CCB4" d="M255.671,240.985c-1.518,0-2.934-0.334-3.983-0.941c-0.889-0.513-1.398-1.169-1.398-1.801
				s0.509-1.289,1.398-1.801c1.035-0.597,2.487-0.939,3.983-0.939c1.519,0,2.933,0.334,3.982,0.939
				c0.889,0.513,1.397,1.169,1.397,1.801s-0.509,1.289-1.397,1.801C258.619,240.643,257.167,240.985,255.671,240.985z"/>
			<path fill="#50DEC6" d="M257.628,236.47c0,0,0.471-18.624,6.911-26.374c6.438-7.75,18.116-23.517,16.368-43.087
				c0,0-27.518,25.605-27.26,43.166c0.256,17.562,0.896,28.197,0.896,28.197L257.628,236.47z"/>
			<path fill="#00CCB4" d="M250.29,238.243c0,0-15.435-23.659-29.915-28.534c-14.479-4.875-42.103-15.924-55.427-42.572
				c0,0,55.896,11.136,69.546,34.003c13.649,22.868,21.291,37.103,21.291,37.103H250.29z"/>
			<path fill="#00CCB4" d="M254.657,240.248c0,0-16.501-3.053-23.484,0.83c-6.982,3.883-21.16,10.61-38.459,5.552
				c0,0,23.185-17.984,38.731-14.526c15.547,3.457,24.955,5.95,24.955,5.95L254.657,240.248z"/>
			<path fill="#00CCB4" d="M261.051,238.243c0,0,15.436-23.659,29.915-28.534c14.48-4.875,42.104-15.924,55.428-42.572
				c0,0-55.897,11.136-69.547,34.003c-13.649,22.868-21.291,37.103-21.291,37.103H261.051z"/>
		</g>
		<g>
			<path fill="#BDD0F9" d="M460.672,578.958c0.132,0.143,0.273,0.24,0.42,0.318C460.961,579.183,460.829,579.084,460.672,578.958z"
				/>
			<path fill="#E6E7E8" d="M542.316,488.068l-10.015,18.811l-35.794-6.067l-0.921,5.437l-16.185-2.743
				c0.343,0.468,0.727,0.93,1.139,1.365c-4.045,5.732-8.538,12.03-17.78,36.567c0.392,0.357,0.792,0.682,1.201,0.988
				c-0.411,1.101-0.831,2.232-1.265,3.404c-0.002,0.008-0.009,0.014-0.013,0.021l-8.998,4.207c0,0-4.375,2.602-3.653,6.051
				c0.723,3.447,6.732,0.885,6.732,0.885l11.531-7.73c0,0,1.159-2.078,0.31-3.802c-0.068-0.14-0.17-0.247-0.284-0.343
				c0.053-0.104,0.105-0.207,0.157-0.31c0.21,0.073,0.418,0.146,0.63,0.213c9.688-19.022,14.843-18.601,19.674-32.304
				c6.86,3.209,12.794,8.347,17.319,10.44c-7.756,9.598-17.184,22.463-17.265,22.581l0,0c-11.991,7.555-10.807,12.433-25.965,25.342
				c-0.003,0.354,0.034,0.697,0.103,1.031c-1.248,1.082-2.604,2.215-4.096,3.4c-0.019,0.016-0.026,0.061-0.035,0.103l-6.745,4.914
				c0,0-4.286-0.702-2.229,3.138c2.056,3.837,8.293-1.293,8.293-1.293l6.238-9.185c0.836-0.55,1.656-1.092,2.448-1.621
				c0.144,0.093,0.291,0.183,0.439,0.271c26.945-17.91,28.176-18.717,37.453-27.025c3.929-3.286,12.436-5.714,15.857-8.263
				l0.578-7.278c0.004-0.001,26.802-16.334,26.802-16.334c9.416-6,4.321-11.319,16.034-19.353c0,0,17.311-4.123,11.02-11.898
				C573.581,479.893,542.316,488.068,542.316,488.068z"/>
			<path fill="#BDD0F9" d="M461.092,579.277c-0.146-0.078-0.288-0.176-0.42-0.318C460.829,579.084,460.961,579.183,461.092,579.277z
				"/>
		</g>
		<g>
			<polygon fill="#00F2D6" points="498.363,77.001 462.445,15.952 426.525,35.526 447.403,47.577 447.403,190.571 477.488,207.942 
				477.488,64.949 			"/>
			<polygon fill="#0984E3" points="563.08,61.047 527.163,0 491.246,19.572 512.12,31.625 512.12,174.617 542.206,191.989 
				542.206,48.995 			"/>
		</g>
		<g>
			<path fill="#E6E7E8" d="M411.812,492.257c30.7,12.48,54.066,9.96,158.881-44.002c27.332-14.07,56.999-42.116,59.252-23.345
				c4.683,39.011,3.081,41.248,26.31,26.918c24.339-15.016,47.354-29.857,47.354-29.857L521.335,319.146
				c10.979-8.055-31.451-23.371-45.591-29.019l-317.757,67.595C142.645,366.684,392.38,484.359,411.812,492.257z"/>
			<path fill="#A7A9AC" d="M158.742,369.501L413.381,496.82c7.134,3.567,18.81,3.567,25.943,0l138.94-69.471
				c7.136-3.567,9.409-15.585,2.275-19.152L323.627,287.059c-7.134-3.567-18.809-3.567-25.943,0l-140.521,62.808
				C150.027,353.433,151.607,365.934,158.742,369.501z"/>
			<path fill="#BCBEC0" d="M158.742,361.934l254.639,127.318c7.134,3.567,18.81,3.567,25.943,0l138.94-69.471
				c7.136-3.567,7.136-9.404,0-12.972L323.627,279.492c-7.134-3.568-18.809-3.568-25.943,0l-138.941,69.47
				C151.607,352.53,151.607,358.367,158.742,361.934z"/>
			<g>
				<polygon fill="#B6C9E0" points="532.475,417.648 546.93,424.875 561.188,417.746 546.732,410.518 				"/>
				<polygon fill="#B6C9E0" points="510.322,406.572 531.082,416.951 545.34,409.822 524.581,399.442 				"/>
				<polygon fill="#B6C9E0" points="488.219,395.52 508.979,405.899 523.236,398.77 502.478,388.389 				"/>
				<polygon fill="#B6C9E0" points="466.125,384.473 486.885,394.852 501.143,387.723 480.384,377.343 				"/>
				<polygon fill="#B6C9E0" points="444.021,373.421 464.779,383.8 479.039,376.67 458.28,366.291 				"/>
				<polygon fill="#B6C9E0" points="422.07,362.446 442.829,372.825 457.088,365.695 436.328,355.315 				"/>
				<polygon fill="#B6C9E0" points="399.965,351.392 420.725,361.773 434.984,354.643 414.225,344.263 				"/>
				<polygon fill="#B6C9E0" points="377.872,340.347 398.631,350.726 412.891,343.596 392.131,333.216 				"/>
				<polygon fill="#B6C9E0" points="355.768,329.293 376.527,339.674 390.787,332.544 370.027,322.164 				"/>
				<polygon fill="#B6C9E0" points="333.556,318.188 354.315,328.567 368.574,321.438 347.814,311.059 				"/>
				<polygon fill="#B6C9E0" points="311.604,307.212 332.364,317.592 346.622,310.462 325.863,300.083 				"/>
				<polygon fill="#B6C9E0" points="289.5,296.161 310.26,306.54 324.519,299.411 303.759,289.03 				"/>
				<polygon fill="#B6C9E0" points="498.893,434.439 513.348,441.666 527.606,434.537 513.15,427.309 				"/>
				<polygon fill="#B6C9E0" points="476.74,423.363 497.5,433.742 511.758,426.613 490.999,416.234 				"/>
				<polygon fill="#B6C9E0" points="454.637,412.311 475.396,422.69 489.654,415.561 468.895,405.18 				"/>
				<polygon fill="#B6C9E0" points="432.543,401.264 453.303,411.643 467.561,404.514 446.802,394.134 				"/>
				<polygon fill="#B6C9E0" points="410.439,390.212 431.198,400.591 445.457,393.462 424.697,383.082 				"/>
				<polygon fill="#B6C9E0" points="388.487,379.237 409.247,389.616 423.506,382.486 402.746,372.106 				"/>
				<polygon fill="#B6C9E0" points="366.383,368.183 387.143,378.564 401.402,371.434 380.643,361.054 				"/>
				<polygon fill="#B6C9E0" points="344.29,357.138 365.05,367.517 379.309,360.387 358.549,350.007 				"/>
				<polygon fill="#B6C9E0" points="322.186,346.084 342.944,356.465 357.204,349.335 336.445,338.956 				"/>
				<polygon fill="#B6C9E0" points="299.974,334.979 320.733,345.359 334.991,338.229 314.232,327.85 				"/>
				<polygon fill="#B6C9E0" points="278.022,324.004 298.782,334.383 313.04,327.253 292.281,316.875 				"/>
				<polygon fill="#B6C9E0" points="255.918,312.952 276.678,323.331 290.937,316.202 270.177,305.821 				"/>
				<polygon fill="#B6C9E0" points="465.311,451.23 479.766,458.457 494.023,451.328 479.568,444.1 				"/>
				<polygon fill="#B6C9E0" points="443.158,440.154 463.918,450.533 478.176,443.404 457.417,433.025 				"/>
				<polygon fill="#B6C9E0" points="421.055,429.102 441.813,439.481 456.072,432.352 435.312,421.971 				"/>
				<polygon fill="#B6C9E0" points="398.961,418.055 419.72,428.434 433.979,421.305 413.219,410.926 				"/>
				<polygon fill="#B6C9E0" points="310.93,374.041 397.615,417.382 411.875,410.253 325.19,366.91 				"/>
				<polygon fill="#B6C9E0" points="300.234,368.691 309.363,373.256 323.622,366.126 314.492,361.562 				"/>
				<polygon fill="#B6C9E0" points="283.933,360.542 298.387,367.768 312.646,360.639 298.191,353.411 				"/>
				<polygon fill="#B6C9E0" points="267.957,352.552 282.412,359.781 296.67,352.652 282.215,345.423 				"/>
				<polygon fill="#B6C9E0" points="251.715,344.432 266.17,351.66 280.429,344.531 265.974,337.303 				"/>
				<polygon fill="#B6C9E0" points="222.336,329.743 249.825,343.488 264.083,336.357 236.595,322.614 				"/>
				<polygon fill="#B6C9E0" points="502.649,419.527 530.139,433.271 544.397,426.14 516.908,412.397 				"/>
				<polygon fill="#B6C9E0" points="486.303,411.352 500.759,418.581 515.019,411.452 500.562,404.223 				"/>
				<polygon fill="#B6C9E0" points="470.062,403.233 484.519,410.46 498.776,403.331 484.321,396.102 				"/>
				<polygon fill="#B6C9E0" points="454.087,395.245 468.542,402.472 482.801,395.343 468.346,388.115 				"/>
				<polygon fill="#B6C9E0" points="437.786,387.094 452.241,394.322 466.5,387.192 452.044,379.965 				"/>
				<polygon fill="#B6C9E0" points="421.483,378.943 435.938,386.171 450.198,379.041 435.743,371.814 				"/>
				<polygon fill="#B6C9E0" points="405.242,370.823 419.697,378.05 433.957,370.92 419.502,363.693 				"/>
				<polygon fill="#B6C9E0" points="389.268,362.835 403.723,370.062 417.98,362.933 403.525,355.706 				"/>
				<polygon fill="#B6C9E0" points="372.966,354.684 387.422,361.913 401.68,354.782 387.225,347.554 				"/>
				<polygon fill="#B6C9E0" points="356.894,346.648 371.349,353.875 385.607,346.746 371.152,339.519 				"/>
				<polygon fill="#B6C9E0" points="340.917,338.66 355.373,345.888 369.633,338.758 355.177,331.53 				"/>
				<polygon fill="#B6C9E0" points="324.616,330.51 339.071,337.737 353.33,330.607 338.875,323.38 				"/>
				<polygon fill="#B6C9E0" points="308.315,322.358 322.771,329.587 337.029,322.458 322.574,315.229 				"/>
				<polygon fill="#B6C9E0" points="292.074,314.238 306.529,321.466 320.788,314.337 306.333,307.108 				"/>
				<polygon fill="#B6C9E0" points="272.709,304.556 290.553,313.478 304.813,306.348 286.968,297.426 				"/>
				<polygon fill="#B6C9E0" points="280.875,327.962 253.386,314.217 239.127,321.347 266.615,335.091 				"/>
				<polygon fill="#B6C9E0" points="297.22,336.135 282.765,328.908 268.506,336.037 282.962,343.264 				"/>
				<polygon fill="#B6C9E0" points="313.462,344.255 299.006,337.028 284.748,344.158 299.203,351.384 				"/>
				<polygon fill="#B6C9E0" points="329.438,352.243 314.982,345.016 300.724,352.145 315.18,359.374 				"/>
				<polygon fill="#B6C9E0" points="345.739,360.394 331.283,353.167 317.025,360.296 331.48,367.523 				"/>
				<polygon fill="#B6C9E0" points="362.04,368.545 347.586,361.317 333.326,368.446 347.781,375.674 				"/>
				<polygon fill="#B6C9E0" points="378.281,376.666 363.826,369.438 349.567,376.567 364.022,383.795 				"/>
				<polygon fill="#B6C9E0" points="394.258,384.653 379.802,377.425 365.542,384.555 379.999,391.783 				"/>
				<polygon fill="#B6C9E0" points="410.559,392.804 396.104,385.576 381.845,392.706 396.3,399.934 				"/>
				<polygon fill="#B6C9E0" points="426.631,400.84 412.176,393.613 397.917,400.743 412.372,407.969 				"/>
				<polygon fill="#B6C9E0" points="442.605,408.828 428.15,401.6 413.892,408.73 428.348,415.957 				"/>
				<polygon fill="#B6C9E0" points="458.908,416.979 444.453,409.75 430.194,416.88 444.648,424.108 				"/>
				<polygon fill="#B6C9E0" points="475.209,425.129 460.754,417.902 446.495,425.031 460.951,432.259 				"/>
				<polygon fill="#B6C9E0" points="491.451,433.25 476.995,426.022 462.737,433.152 477.192,440.379 				"/>
				<polygon fill="#B6C9E0" points="510.814,442.933 492.972,434.009 478.712,441.139 496.557,450.062 				"/>
			</g>
			<g>
				<polygon fill="#CEE0F2" points="532.227,415.327 546.682,422.555 560.94,415.426 546.485,408.198 				"/>
				<polygon fill="#CEE0F2" points="510.075,404.251 530.834,414.631 545.093,407.502 524.333,397.122 				"/>
				<polygon fill="#CEE0F2" points="487.97,393.199 508.73,403.58 522.989,396.451 502.229,386.07 				"/>
				<polygon fill="#CEE0F2" points="465.878,382.153 486.637,392.533 500.896,385.404 480.136,375.023 				"/>
				<polygon fill="#CEE0F2" points="443.772,371.1 464.532,381.481 478.792,374.352 458.032,363.971 				"/>
				<polygon fill="#CEE0F2" points="421.821,360.125 442.58,370.505 456.84,363.375 436.081,352.996 				"/>
				<polygon fill="#CEE0F2" points="399.718,349.073 420.477,359.454 434.735,352.324 413.978,341.944 				"/>
				<polygon fill="#CEE0F2" points="377.624,338.026 398.383,348.407 412.643,341.277 391.884,330.897 				"/>
				<polygon fill="#CEE0F2" points="355.52,326.974 376.279,337.354 390.538,330.224 369.778,319.845 				"/>
				<polygon fill="#CEE0F2" points="333.309,315.868 354.067,326.248 368.326,319.119 347.566,308.739 				"/>
				<polygon fill="#CEE0F2" points="311.357,304.894 332.116,315.272 346.375,308.143 325.615,297.763 				"/>
				<polygon fill="#CEE0F2" points="289.253,293.84 310.013,304.221 324.271,297.091 303.512,286.711 				"/>
				<polygon fill="#CEE0F2" points="498.645,432.118 513.1,439.346 527.358,432.217 512.903,424.989 				"/>
				<polygon fill="#CEE0F2" points="476.492,421.043 497.252,431.422 511.511,424.293 490.751,413.913 				"/>
				<polygon fill="#CEE0F2" points="454.388,409.991 475.147,420.371 489.407,413.242 468.647,402.861 				"/>
				<polygon fill="#CEE0F2" points="432.295,398.944 453.055,409.324 467.313,402.195 446.554,391.814 				"/>
				<polygon fill="#CEE0F2" points="410.19,387.892 430.949,398.272 445.21,391.143 424.45,380.762 				"/>
				<polygon fill="#CEE0F2" points="388.239,376.916 408.998,387.296 423.258,380.167 402.499,369.787 				"/>
				<polygon fill="#CEE0F2" points="366.135,365.864 386.895,376.245 401.154,369.115 380.395,358.735 				"/>
				<polygon fill="#CEE0F2" points="344.042,354.817 364.801,365.198 379.061,358.068 358.302,347.688 				"/>
				<polygon fill="#CEE0F2" points="321.938,343.765 342.697,354.146 356.956,347.015 336.196,336.636 				"/>
				<polygon fill="#CEE0F2" points="299.726,332.659 320.485,343.04 334.744,335.91 313.984,325.53 				"/>
				<polygon fill="#CEE0F2" points="277.775,321.685 298.534,332.063 312.792,324.934 292.033,314.554 				"/>
				<polygon fill="#CEE0F2" points="255.671,310.631 276.43,321.012 290.689,313.882 269.93,303.502 				"/>
				<polygon fill="#CEE0F2" points="465.062,448.91 479.518,456.137 493.776,449.008 479.321,441.78 				"/>
				<polygon fill="#CEE0F2" points="442.91,437.833 463.67,448.213 477.929,441.084 457.169,430.704 				"/>
				<polygon fill="#CEE0F2" points="420.806,426.782 441.566,437.162 455.824,430.033 435.065,419.652 				"/>
				<polygon fill="#CEE0F2" points="398.713,415.735 419.473,426.115 433.731,418.986 412.972,408.605 				"/>
				<polygon fill="#CEE0F2" points="310.683,371.72 397.367,415.063 411.627,407.934 324.942,364.59 				"/>
				<polygon fill="#CEE0F2" points="299.986,366.372 309.115,370.937 323.374,363.806 314.245,359.243 				"/>
				<polygon fill="#CEE0F2" points="283.684,358.22 298.139,365.449 312.399,358.32 297.944,351.091 				"/>
				<polygon fill="#CEE0F2" points="267.709,350.233 282.165,357.46 296.423,350.331 281.968,343.104 				"/>
				<polygon fill="#CEE0F2" points="251.468,342.113 265.923,349.34 280.182,342.21 265.727,334.983 				"/>
				<polygon fill="#CEE0F2" points="222.087,327.422 249.576,341.167 263.836,334.038 236.347,320.293 				"/>
				<polygon fill="#CEE0F2" points="502.402,417.206 529.891,430.951 544.149,423.821 516.661,410.077 				"/>
				<polygon fill="#CEE0F2" points="486.056,409.033 500.511,416.261 514.77,409.132 500.315,401.904 				"/>
				<polygon fill="#CEE0F2" points="469.814,400.913 484.27,408.141 498.529,401.011 484.074,393.783 				"/>
				<polygon fill="#CEE0F2" points="453.839,392.925 468.295,400.152 482.553,393.023 468.098,385.795 				"/>
				<polygon fill="#CEE0F2" points="437.538,384.774 451.992,392.002 466.252,384.873 451.797,377.645 				"/>
				<polygon fill="#CEE0F2" points="421.236,376.624 435.691,383.851 449.951,376.721 435.496,369.494 				"/>
				<polygon fill="#CEE0F2" points="404.994,368.503 419.449,375.73 433.71,368.601 419.254,361.374 				"/>
				<polygon fill="#CEE0F2" points="389.02,360.514 403.475,367.743 417.733,360.614 403.278,353.385 				"/>
				<polygon fill="#CEE0F2" points="372.719,352.365 387.173,359.591 401.433,352.462 386.977,345.236 				"/>
				<polygon fill="#CEE0F2" points="356.646,344.329 371.102,351.556 385.359,344.426 370.904,337.198 				"/>
				<polygon fill="#CEE0F2" points="340.67,336.34 355.125,343.569 369.384,336.439 354.929,329.211 				"/>
				<polygon fill="#CEE0F2" points="324.369,328.189 338.824,335.417 353.083,328.288 338.627,321.06 				"/>
				<polygon fill="#CEE0F2" points="308.068,320.039 322.521,327.266 336.781,320.137 322.326,312.91 				"/>
				<polygon fill="#CEE0F2" points="291.826,311.918 306.282,319.146 320.54,312.016 306.085,304.789 				"/>
				<polygon fill="#CEE0F2" points="272.462,302.236 290.306,311.158 304.564,304.029 286.721,295.107 				"/>
				<polygon fill="#CEE0F2" points="280.627,325.643 253.138,311.898 238.88,319.027 266.367,332.772 				"/>
				<polygon fill="#CEE0F2" points="296.973,333.815 282.518,326.587 268.259,333.718 282.714,340.945 				"/>
				<polygon fill="#CEE0F2" points="313.214,341.936 298.759,334.708 284.5,341.837 298.956,349.065 				"/>
				<polygon fill="#CEE0F2" points="329.19,349.923 314.735,342.697 300.475,349.826 314.931,357.052 				"/>
				<polygon fill="#CEE0F2" points="345.491,358.075 331.036,350.846 316.777,357.976 331.232,365.204 				"/>
				<polygon fill="#CEE0F2" points="361.792,366.224 347.337,358.998 333.078,366.126 347.534,373.354 				"/>
				<polygon fill="#CEE0F2" points="378.034,374.345 363.578,367.119 349.32,374.248 363.775,381.474 				"/>
				<polygon fill="#CEE0F2" points="394.01,382.333 379.555,375.106 365.295,382.235 379.75,389.463 				"/>
				<polygon fill="#CEE0F2" points="410.311,390.484 395.855,383.256 381.597,390.386 396.053,397.613 				"/>
				<polygon fill="#CEE0F2" points="426.384,398.521 411.928,391.292 397.668,398.421 412.124,405.65 				"/>
				<polygon fill="#CEE0F2" points="442.358,406.508 427.903,399.28 413.645,406.411 428.1,413.637 				"/>
				<polygon fill="#CEE0F2" points="458.66,414.66 444.205,407.431 429.945,414.56 444.4,421.789 				"/>
				<polygon fill="#CEE0F2" points="474.962,422.809 460.507,415.583 446.248,422.711 460.703,429.939 				"/>
				<polygon fill="#CEE0F2" points="491.203,430.93 476.748,423.703 462.489,430.833 476.943,438.059 				"/>
				<polygon fill="#CEE0F2" points="510.567,440.612 492.723,431.69 478.464,438.82 496.309,447.742 				"/>
			</g>
			<g>
				<polygon fill="#FFFFFF" points="532.385,416.094 546.84,423.321 561.098,416.192 546.643,408.963 				"/>
				<polygon fill="#FFFFFF" points="510.232,405.018 530.992,415.397 545.25,408.268 524.491,397.887 				"/>
				<polygon fill="#FFFFFF" points="488.129,393.966 508.888,404.345 523.146,397.215 502.387,386.835 				"/>
				<polygon fill="#FFFFFF" points="466.035,382.919 486.794,393.298 501.053,386.169 480.293,375.789 				"/>
				<polygon fill="#FFFFFF" points="443.932,371.866 464.69,382.247 478.949,375.117 458.189,364.737 				"/>
				<polygon fill="#FFFFFF" points="421.979,360.89 442.739,371.271 456.998,364.141 436.238,353.761 				"/>
				<polygon fill="#FFFFFF" points="399.875,349.838 420.634,360.218 434.894,353.089 414.135,342.709 				"/>
				<polygon fill="#FFFFFF" points="377.782,338.792 398.542,349.172 412.801,342.042 392.041,331.663 				"/>
				<polygon fill="#FFFFFF" points="355.678,327.74 376.437,338.12 390.696,330.991 369.938,320.61 				"/>
				<polygon fill="#FFFFFF" points="333.466,316.634 354.226,327.014 368.483,319.884 347.725,309.504 				"/>
				<polygon fill="#FFFFFF" points="311.514,305.659 332.273,316.038 346.532,308.909 325.772,298.53 				"/>
				<polygon fill="#FFFFFF" points="289.411,294.607 310.17,304.986 324.429,297.857 303.669,287.477 				"/>
				<polygon fill="#FFFFFF" points="498.802,432.885 513.258,440.112 527.516,432.983 513.061,425.754 				"/>
				<polygon fill="#FFFFFF" points="476.65,421.809 497.409,432.188 511.668,425.059 490.908,414.678 				"/>
				<polygon fill="#FFFFFF" points="454.547,410.757 475.306,421.136 489.564,414.007 468.805,403.626 				"/>
				<polygon fill="#FFFFFF" points="432.453,399.71 453.212,410.089 467.471,402.96 446.711,392.58 				"/>
				<polygon fill="#FFFFFF" points="410.349,388.657 431.108,399.038 445.367,391.908 424.607,381.528 				"/>
				<polygon fill="#FFFFFF" points="388.397,377.683 409.157,388.062 423.416,380.932 402.656,370.552 				"/>
				<polygon fill="#FFFFFF" points="366.293,366.629 387.052,377.01 401.312,369.88 380.553,359.5 				"/>
				<polygon fill="#FFFFFF" points="344.199,355.583 364.96,365.963 379.218,358.833 358.459,348.454 				"/>
				<polygon fill="#FFFFFF" points="322.096,344.531 342.854,354.912 357.114,347.782 336.355,337.401 				"/>
				<polygon fill="#FFFFFF" points="299.884,333.426 320.643,343.804 334.901,336.675 314.142,326.295 				"/>
				<polygon fill="#FFFFFF" points="277.932,322.45 298.691,332.829 312.95,325.7 292.19,315.321 				"/>
				<polygon fill="#FFFFFF" points="255.828,311.398 276.588,321.777 290.846,314.648 270.087,304.268 				"/>
				<polygon fill="#FFFFFF" points="465.22,449.676 479.675,456.903 493.934,449.774 479.479,442.545 				"/>
				<polygon fill="#FFFFFF" points="443.068,438.6 463.827,448.979 478.086,441.85 457.326,431.469 				"/>
				<polygon fill="#FFFFFF" points="420.964,427.546 441.724,437.927 455.982,430.798 435.223,420.417 				"/>
				<polygon fill="#FFFFFF" points="398.871,416.501 419.63,426.88 433.889,419.751 413.129,409.371 				"/>
				<polygon fill="#FFFFFF" points="310.84,372.486 397.526,415.829 411.785,408.699 325.1,365.356 				"/>
				<polygon fill="#FFFFFF" points="300.144,367.137 309.272,371.703 323.532,364.573 314.402,360.008 				"/>
				<polygon fill="#FFFFFF" points="283.843,358.988 298.298,366.214 312.557,359.085 298.101,351.857 				"/>
				<polygon fill="#FFFFFF" points="267.867,350.999 282.322,358.227 296.581,351.096 282.125,343.87 				"/>
				<polygon fill="#FFFFFF" points="251.625,342.878 266.081,350.106 280.339,342.977 265.885,335.749 				"/>
				<polygon fill="#FFFFFF" points="222.246,328.189 249.735,341.932 263.994,334.803 236.505,321.059 				"/>
				<polygon fill="#FFFFFF" points="502.56,417.972 530.049,431.717 544.307,424.586 516.818,410.843 				"/>
				<polygon fill="#FFFFFF" points="486.213,409.798 500.668,417.027 514.928,409.898 500.473,402.669 				"/>
				<polygon fill="#FFFFFF" points="469.973,401.678 484.427,408.906 498.687,401.777 484.231,394.548 				"/>
				<polygon fill="#FFFFFF" points="453.997,393.691 468.452,400.918 482.711,393.79 468.255,386.561 				"/>
				<polygon fill="#FFFFFF" points="437.695,385.541 452.15,392.767 466.409,385.638 451.954,378.41 				"/>
				<polygon fill="#FFFFFF" points="421.394,377.389 435.849,384.617 450.108,377.487 435.653,370.26 				"/>
				<polygon fill="#FFFFFF" points="405.153,369.269 419.607,376.496 433.867,369.367 419.412,362.139 				"/>
				<polygon fill="#FFFFFF" points="389.177,361.282 403.633,368.508 417.891,361.379 403.436,354.151 				"/>
				<polygon fill="#FFFFFF" points="372.876,353.13 387.331,360.357 401.59,353.228 387.135,346 				"/>
				<polygon fill="#FFFFFF" points="356.804,345.094 371.259,352.322 385.518,345.192 371.062,337.964 				"/>
				<polygon fill="#FFFFFF" points="340.827,337.106 355.282,344.334 369.542,337.205 355.087,329.977 				"/>
				<polygon fill="#FFFFFF" points="324.526,328.956 338.981,336.183 353.24,329.054 338.785,321.825 				"/>
				<polygon fill="#FFFFFF" points="308.225,320.805 322.681,328.033 336.939,320.902 322.483,313.675 				"/>
				<polygon fill="#FFFFFF" points="291.984,312.684 306.439,319.912 320.697,312.783 306.242,305.555 				"/>
				<polygon fill="#FFFFFF" points="272.62,303.002 290.463,311.923 304.723,304.794 286.878,295.873 				"/>
				<polygon fill="#FFFFFF" points="280.785,326.408 253.296,312.664 239.037,319.793 266.526,333.537 				"/>
				<polygon fill="#FFFFFF" points="297.13,334.581 282.676,327.354 268.417,334.483 282.872,341.71 				"/>
				<polygon fill="#FFFFFF" points="313.371,342.702 298.916,335.475 284.658,342.604 299.113,349.831 				"/>
				<polygon fill="#FFFFFF" points="329.348,350.689 314.893,343.462 300.634,350.591 315.089,357.818 				"/>
				<polygon fill="#FFFFFF" points="345.648,358.84 331.193,351.612 316.935,358.743 331.391,365.969 				"/>
				<polygon fill="#FFFFFF" points="361.95,366.992 347.496,359.763 333.236,366.892 347.691,374.121 				"/>
				<polygon fill="#FFFFFF" points="378.191,375.112 363.736,367.883 349.478,375.013 363.933,382.242 				"/>
				<polygon fill="#FFFFFF" points="394.167,383.099 379.712,375.872 365.453,383 379.909,390.229 				"/>
				<polygon fill="#FFFFFF" points="410.469,391.25 396.013,384.022 381.755,391.152 396.21,398.379 				"/>
				<polygon fill="#FFFFFF" points="426.541,399.287 412.086,392.058 397.827,399.187 412.282,406.416 				"/>
				<polygon fill="#FFFFFF" points="442.516,407.274 428.062,400.046 413.802,407.176 428.257,414.403 				"/>
				<polygon fill="#FFFFFF" points="458.818,415.425 444.363,408.197 430.104,415.326 444.56,422.554 				"/>
				<polygon fill="#FFFFFF" points="475.119,423.575 460.664,416.348 446.405,423.477 460.86,430.706 				"/>
				<polygon fill="#FFFFFF" points="491.36,431.696 476.905,424.468 462.646,431.597 477.102,438.826 				"/>
				<polygon fill="#FFFFFF" points="510.725,441.377 492.881,432.456 478.621,439.585 496.467,448.508 				"/>
			</g>
			<polygon fill="#B6C9E0" points="263.982,399.357 263.982,401.519 379.277,413.115 379.277,410.953 310.035,376.331 			"/>
			<polygon fill="#CEE0F2" points="263.982,401.519 333.226,436.141 379.277,413.115 310.035,378.493 			"/>
			<polygon fill="#FFFFFF" points="265.566,401.016 332.694,434.581 377.34,412.257 310.212,378.693 			"/>
			<path fill="#A7A9AC" d="M335.514,290.466l241.507,122.54c7.135,3.567,19.032-0.623,19.032-13.693l2.162-200.386
				c0-7.135-5.838-15.892-12.972-19.46L335.514,65.216c-7.136-3.568-20.043,1.855-20.043,8.99l7.07,196.8
				C322.541,278.141,328.378,286.897,335.514,290.466z"/>
			<path fill="#D1D3D4" d="M327.946,281.818L575.514,410.12c7.135,3.568,12.972,0.65,12.972-6.484l2.162-200.386
				c0-7.135-5.837-15.892-12.972-19.459L327.946,69.541c-7.136-3.569-12.973-0.65-12.973,6.484v186.333
				C314.974,269.493,320.811,278.25,327.946,281.818z"/>
			<path fill="#262262" d="M340.28,277.634l222.898,115.517c6.424,3.213,11.681,0.585,11.681-5.838l2.161-181.819
				c0-6.424-5.255-14.308-11.68-17.52L340.28,86.51c-6.424-3.213-11.679-0.585-11.679,5.838v167.766
				C328.602,266.537,333.856,274.421,340.28,277.634z"/>
			<path fill="#263274" d="M389.276,303.026l33.964,17.603c-11.403-45.134-54.773-217.073-56.924-222.381L340.28,86.51
				c-6.424-3.213-11.679-0.585-11.679,5.838v2.04L389.276,303.026z"/>
			<path opacity="0.37" fill="#FFFFFF" d="M328.602,189.723v70.39c0,6.423,5.255,14.308,11.679,17.521l11.355,5.885
				C344.576,252.165,337.421,220.624,328.602,189.723z"/>
			<path fill="#263274" d="M571.347,393.879c2.163-1.042,3.513-3.315,3.513-6.566l2.161-181.819c0-6.424-5.257-14.308-11.68-17.52
				l-50.936-22.964C514.83,166.556,571.347,393.879,571.347,393.879z"/>
			<path fill="#263274" d="M475.16,147.317l-67.604-30.478l54.819,224.071l70.458,36.515
				C531.841,373.968,475.16,147.317,475.16,147.317z"/>
			<path fill="#26224E" d="M430.748,202.165c-10.809,24.246-7.953,60.864,6.378,81.789c14.332,20.924,34.712,18.232,45.521-6.015
				c10.808-24.246,7.953-60.864-6.378-81.789C461.938,175.226,441.558,177.918,430.748,202.165z"/>
			<g>
				<g>
					<path fill="#BDD0F9" d="M223.521,470.997c-0.929-0.186-1.692-0.447-2.323-0.767c0.513,1.292,1.014,2.59,1.473,3.822
						c1.097-0.821,2.193-1.702,3.245-2.638C224.96,471.297,224.138,471.121,223.521,470.997z"/>
					<path fill="#BDD0F9" d="M185.024,433.146c1.081,0.224,2.088,0.474,3.028,0.743c-8.74-5.937-19.863-14.027-25.111-17.874
						c-3.142,4.704-2.857,6.827-5.147,9.776C167.039,428.735,175.281,431.125,185.024,433.146z"/>
					<path fill="#E6E7E8" d="M270.874,467.65l-2.072,0.194c-1.521-3.25-3.27-5.95-6.256-7.39
						c-7.937-5.021-15.183-21.097-22.955-18.383c-2.64-1.13-6.058-0.736-10.008-0.088c-1.17,0.192-2.242,0.545-3.252,1.007
						c-6.19-0.204-9.474-1.461-12.9-5.807c0,0-2.064-10.664-13.383-14.159c-6.616-2.044-12.486-4.3-18.449-6.784
						c-2.502,0.079-5.062-0.462-7.332-1.562c-0.682-0.331-1.372-0.639-2.062-0.954c-0.055-0.025-0.088-0.041-0.134-0.062
						c-1.775-0.773-3.581-1.47-5.333-2.293c-3.011-1.414-6.01-3.377-8.244-5.848c-1.212-1.341-2.127-2.814-2.749-4.357h-6.76
						c7.678,10.813,9.538,11.826,12.435,14.294c-8.337,8.647-11.405,10.379-13.013,13.739c-1.115,2.332,4.077,6.42,4.077,6.42l0,0
						c3.711,3.423,14.19,12.496,27.763,18.611c-5.603,1.79-7.564,4.927-2.864,7.89c6.052,3.815,29.881,11.372,33.566,5.817
						c0.085-0.129,0.174-0.247,0.26-0.369c1.996,5.938,6.276,12.141,9.091,15.68c0.373,0.178,0.74,0.378,1.101,0.606
						c0.815,0.529,1.674,0.969,2.522,1.439c0.585,0.325,1.152,0.694,1.71,1.082c5.296-2.78,9.043-8.366,13.4-14.594
						c4.527-4.021,2.79-4.973,0.599-6.226c2.262-0.307,3.844-1.655,4.786-3.399c0.546-1.008,0.965-2.527,1.107-4.163
						c3.382,2.276,7.868,4.185,11.019,6.954c-0.112,0.323-0.117,0.558,0.018,0.643c2.232,1.42,4.943,3.465,6.835,5.89l0.03,2.722
						c2.811-1.908,5.677-3.741,8.643-5.437C272.024,468.088,271.503,467.591,270.874,467.65z M188.304,436.425
						c-9.742-2.022-17.984-4.41-27.23-7.355c2.288-2.948,2.004-5.07,5.146-9.775c5.25,3.846,16.372,11.938,25.113,17.875
						C190.392,436.9,189.384,436.65,188.304,436.425z M225.951,477.332c-0.46-1.233-0.962-2.529-1.474-3.821
						c0.631,0.318,1.393,0.58,2.324,0.767c0.617,0.123,1.438,0.3,2.395,0.418C228.144,475.628,227.047,476.509,225.951,477.332z"/>
				</g>
				<path fill="#0F236C" d="M148.807,407.557l6.768-6.089c-7.106-11.489-11.833-10.463-25.161-27.632
					c-0.147-0.19-3.029-0.188-4.158,1.186c-1.075,1.31-0.368,2.771-0.211,3.017C143.166,404.876,143.383,402.018,148.807,407.557z"
					/>
				<path fill="#4FD8B2" d="M181.878,449.884c-0.396,6.624,20.593,1.258,25.47,7.442c1.612,2.048,22.906-20.875,20.735-20.805
					c-15.625,0.496-20.703,0.952-26.163-6.333C200.386,428.142,182.866,433.342,181.878,449.884z"/>
				<path fill="#3EC4B2" d="M198.19,431.541c1.128,4.863,6.537,5.72,10.829,6.238c4.859,0.586,9.76,0.345,14.637,0.597
					c1.259,0.064,2.08,0.631,2.519,1.42c1.589-1.974,2.432-3.291,1.909-3.273c-15.625,0.496-20.703,0.952-26.163-6.333
					c-0.427-0.569-2.095-0.577-4.299,0.065C197.872,430.598,198.069,431.021,198.19,431.541z"/>
				<path fill="#0F236C" d="M201.92,430.189c-7.279,1.383-10.801,7.83-10.801,7.83c-4.126-0.584-42.155-30.346-42.312-30.462
					l6.526-6.729c11.338,5.236,20.775,9.692,32.387,13.524C199.686,418.301,201.92,430.189,201.92,430.189z"/>
				<path fill="#3CB6BF" d="M187.72,414.352c-11.612-3.832-21.048-8.288-32.387-13.524l-0.1,0.102
					c-6.918-10.915-11.706-10.203-24.819-27.093c-0.147-0.19-3.029-0.188-4.158,1.186c-0.388,0.474-0.538,0.964-0.572,1.41
					c1.6-0.309,3.711-2.63,4.851-0.948c3.591,5.298,10.024,12.885,16.676,19.169c3.922,3.705,7.207,8.694,4.282,14.527
					c-0.057,0.114-0.119,0.221-0.183,0.324c0.96,0.745,5.773,4.452,7.156,5.518c5.754-6.865,7.154-8.061,22.277-1.862
					c9.432,3.866,11.782,4.597,14.765,9.792c4.812,8.385-4.651,10.696-4.397,15.065c0.002,0,0.005,0.002,0.008,0.002
					c0,0,3.521-6.447,10.801-7.83C201.92,430.189,199.686,418.301,187.72,414.352z"/>
				<path fill="#B74C4E" d="M127.782,378.421c0,0,2.47-0.24,3.867-2.195c1.396-1.954-2.177-5.204-2.177-5.204l-7.738-6.229
					c0,0-4.146-2.529-7.291,0.432c-3.145,2.963,1.552,7.103,1.552,7.103L127.782,378.421z"/>
				<path fill="#0F236C" d="M191.119,438.019c-7.135,3.027-7.669,16.662-7.669,16.662c-26.024-5.304-47.263-27.982-47.429-28.084
					l5.829-7.341c11.8,4.09,21.605,7.294,33.539,9.959C187.687,431.963,191.119,438.019,191.119,438.019z"/>
				<path fill="#3CB6BF" d="M138.124,424.532c7.524,0.089,6.166-2.907,13.017-0.724c2.573,0.82,17.912,5.849,22.534,6.309
					c4.888,0.484,10.783,1.941,13.199,6.638c0.563,1.094,0.959,2.289,1.223,3.531c0.846-0.971,1.842-1.767,3.022-2.267
					c0,0-3.433-6.056-15.731-8.804c-11.934-2.665-21.739-5.869-33.539-9.959l-4.334,5.46
					C137.708,424.644,137.903,424.53,138.124,424.532z"/>
				<path fill="#B74C4E" d="M160.38,401.93c0,0,0.96,4.544-4.878,3.528c-1.406-0.246-1.332-3.454-1.332-3.454l-2.956-1.118
					c0,0,0.952-2.706,1.156-6.361c0.336-6.059,0.458-9.279,1.561-10.186c2.076-1.711,3.881,4.696,3.881,4.696L160.38,401.93z"/>
				<path fill="#BA4424" d="M129.472,371.022l-7.738-6.229c0,0-2.615-1.585-5.267-0.759c0.57-0.03,1.141,0.08,1.656,0.371
					c3.191,1.799,6.662,3.471,8.453,6.854c0.931,1.76,0.908,3.853-0.88,5.117c-0.284,0.202-0.616,0.355-0.97,0.464l3.057,1.58
					c0,0,2.47-0.24,3.867-2.195C133.045,374.272,129.472,371.022,129.472,371.022z"/>
				<path fill="#BA4424" d="M160.38,401.93l-2.568-12.895c0,0-1.727-6.128-3.747-4.792c0.693,0.399,1.242,0.999,1.421,1.797
					c1.069,4.774,1.768,9.549,2.113,14.429c0.144,2.019-1.412,3.452-3.115,3.847c0.195,0.573,0.509,1.053,1.018,1.143
					C161.34,406.474,160.38,401.93,160.38,401.93z"/>
				<path fill="#0F236C" d="M133.232,420.967c-1.166,2.59,4.336,7.167,4.336,7.167l5.519-3.549c8.034-7.034,3.131-8.262,13.13-20.28
					c0.121-0.146-0.731-2.62-2.279-3.48c-1.474-0.818-2.573-0.111-2.724,0.062C139.141,414.792,135.164,416.674,133.232,420.967z"/>
				<path fill="#3CB6BF" d="M155.606,402.66c-0.113,0.529-0.362,1.063-0.786,1.576c-2.228,2.69-4.427,5.078-5.851,8.313
					c-1.21,2.751-2.269,5.485-3.928,8.013c-0.221,0.338-0.475,0.696-0.751,1.062c-0.106,0.345-0.212,0.688-0.326,1.03
					c-0.214,0.645-0.485,1.247-0.775,1.84c7.884-6.952,3.074-8.223,13.029-20.189C156.282,404.227,156.062,403.473,155.606,402.66z"
					/>
				<path fill="#4FD8B2" d="M208.983,458.887c0.922,1.955,6.604,15.81,8.211,21.778c0.675,2.512-3.579,5.451-5.166,3.997
					c-2.266-2.081-19.536-24.54-11.257-33.685C202.143,449.462,208.062,456.931,208.983,458.887z"/>
				<path fill="#4FD8B2" d="M231.295,448.247c2.265,6.237,13.04,8.644,17.917,14.83c1.615,2.045,6.482-5.523,4.677-6.732
					c-8.907-5.966-17.059-25.778-25.806-19.822C226.316,437.724,230.556,446.214,231.295,448.247z"/>
				<path fill="#4FD8B2" d="M231.117,465.85c-5.547,8.168-9.795,15.869-16.3,19.314c-3.488,1.849-5.727-5.808-4.578-6.557
					c5.202-3.395,12.658-9.163,15.132-15.491C225.945,461.647,231.833,464.796,231.117,465.85z"/>
				<path fill="#3EC4B2" d="M225.372,463.117c-1.731,4.428-5.903,8.579-10.034,11.838c-2.318-6.496-5.665-14.605-6.355-16.067
					c-0.921-1.956-6.84-9.425-8.212-7.909c-3.166,3.498-2.59,8.941-0.552,14.447c0.255-0.086,0.53-0.146,0.828-0.178
					c6.639-0.729,8.764,4.948,11.25,9.852c1.543,3.043,3.542,2.199,6.581,1.634c1.782-0.332,3.403-0.387,4.958-0.141
					c2.384-3.225,4.692-6.929,7.282-10.742C231.833,464.796,225.945,461.647,225.372,463.117z"/>
				<path fill="#4FD8B2" d="M263.524,471.87c-2.803-6.62-4.517-12.903-9.635-15.525c-2.745-1.405-7.152,5.106-6.292,5.688
					c3.905,2.632,9.229,7.162,9.673,12.365C257.375,475.606,263.884,472.724,263.524,471.87z"/>
				<path fill="#3EC4B2" d="M252.535,458.802c4.659,4.111,8.14,8.179,10.499,13.762c0.361-0.279,0.561-0.525,0.49-0.694
					c-2.803-6.62-4.517-12.903-9.635-15.525c-8.907-5.966-17.059-25.778-25.806-19.822c-1.767,1.202,2.473,9.692,3.212,11.725
					c1.097,3.025,4.197,5.15,7.657,7.241C243.52,451.565,248.765,455.472,252.535,458.802z"/>
				<path fill="#0F236C" d="M264.217,480.392c0.013,0.801-0.546,1.508-1.234,1.572l-6.672,0.623
					c-0.69,0.065-1.267-0.538-1.279-1.338l-0.221-14.654c-0.01-0.8,0.546-1.507,1.237-1.573l6.669-0.622
					c0.693-0.065,1.27,0.537,1.28,1.339L264.217,480.392z"/>
				<path fill="#FDC8A8" d="M255.813,480.263c2.958,2.377,14.825-4.406,11.902-6.815c-6.106-5.034-6.977-1.524-10.005-0.271
					C253.03,475.112,252.855,477.888,255.813,480.263z"/>
				<path fill="#FDC8A8" d="M223.899,457.069c0.787,1.955,2.668,4.756,4.098,4.879c3.328,0.283,5.555-1.428,6.764-3.801
					c1.939-3.807,2.333-14.153-5.177-13.955c-2.003,0.056-5.486-0.852-6.315,2.888C222.741,449.458,223.014,454.866,223.899,457.069
					z"/>
				<path id="XMLID_3_" fill="#FF4B5A" d="M229.122,468.838c-4.986,4.665-10.438,3.249-12.9,2.718
					c-7.798-1.68-4.565-8.645-8.505-10.291c-3.361-1.403-6.008-0.446-8.261,3.151c-3.862,6.165-29.058-2.367-35.467-6.646
					c-9.352-6.243,6.12-13.059,25.319-9.281c15.992,3.147,19.272-11.119,29.689-12.876c8.363-1.409,14.472-1.688,16.269,10.571
					c0.571,3.9-14.33-7.003-8.866,12.255C227.756,463.208,236.619,461.824,229.122,468.838z"/>
				<path id="XMLID_2_" fill="#BD7AFF" d="M229.122,468.838c-4.986,4.665-10.438,3.249-12.9,2.718
					c-7.798-1.68-4.565-8.645-8.505-10.291c-3.361-1.403-6.008-0.446-8.261,3.151c-3.862,6.165-29.058-2.367-35.467-6.646
					c-9.352-6.243,6.12-13.059,25.319-9.281c15.992,3.147,19.272-11.119,29.689-12.876c8.363-1.409,14.472-1.688,16.269,10.571
					c0.571,3.9-14.33-7.003-8.866,12.255C227.756,463.208,236.619,461.824,229.122,468.838z"/>
				<path fill="#AD5DFF" d="M235.266,446.184c-0.655-4.456-1.879-7.25-3.572-8.939c1.985,3.649,0.054,6.874-4.187,7.612
					c-2.069,0.362-3.275,0.601-3.676,2.903c-0.465,2.674,0.275,5.908,0.944,8.506c0.791,3.069,2.795,6.998,1.379,10.15
					c-1.366,3.043-4.97,3.618-7.76,2.329c-2.873-1.328-5.151-3.902-7.28-6.155c-0.889-0.942-1.792-2.25-2.874-2.972
					c-1.6-1.068-3.836-0.796-5.688-0.396c-2.154,0.465-3.668,1.898-5.492,3.039c-2.018,1.264-4.103,2.096-6.472,2.421
					c-2.929,0.4-6.032,0.317-9.096,0.021c7.997,2.13,15.931,2.955,17.962-0.286c2.253-3.598,4.9-4.555,8.261-3.151
					c3.94,1.646,0.706,8.611,8.505,10.291c2.463,0.531,7.914,1.947,12.9-2.718c7.498-7.015-1.366-5.63-2.722-10.399
					C220.936,439.181,235.837,450.084,235.266,446.184z"/>
			</g>
			<g>
				<g id="XMLID_60_">
					<path id="XMLID_71_" fill="#FF4B5A" d="M422.447,192.167l0.009,0.016c5.295-1.525,11.515,0.117,17.618,5.211
						c0.642,0.524,1.282,1.098,1.928,1.71c0.754,0.728,1.479,1.474,2.189,2.279c1.18,1.312,2.299,2.71,3.356,4.207
						c1.946,2.711,3.688,5.687,5.207,8.849c4.069,8.494,6.515,18.255,6.811,27.474c0.146,4.653-0.256,9.159-1.276,13.312
						c-2.166,8.817-6.729,14.345-12.392,16.183l19.939-5.775l-0.016-0.041c7.058-2.379,12.959-8.272,15.091-16.945
						c0.974-3.962,1.386-8.264,1.288-12.691c-0.2-9.398-2.663-19.403-6.826-28.083c-1.52-3.162-3.257-6.15-5.206-8.849
						c-1.059-1.497-2.174-2.906-3.357-4.206c-0.711-0.806-1.444-1.567-2.189-2.28c-0.633-0.609-1.289-1.174-1.954-1.704
						c-6.087-4.801-13.346-6.118-19.868-4.528l-0.009-0.015l-0.555,0.153c-0.231,0.069-0.475,0.136-0.71,0.217L422.447,192.167z"/>
					<path fill="#FF4B5A" d="M480.912,248.647c0.974-3.962,1.386-8.264,1.288-12.691c-0.062-2.934-0.371-5.927-0.856-8.919
						c-0.165,0.567-0.346,1.137-0.562,1.711c-3.235,8.507-12.293,14.481-21.203,16.102c-0.072,3.609-0.486,7.103-1.289,10.375
						c-2.166,8.817-6.729,14.345-12.392,16.183l19.939-5.775l-0.016-0.041C472.879,263.213,478.78,257.32,480.912,248.647z"/>
					<path id="XMLID_70_" fill="#FF4F34" d="M422.456,192.183l3.393,11.658c-4.432,18.088,2.864,43.183,16.303,56.061
						c0.021,0.018,0.029,0.032,0.051,0.05l3.369,11.552c0.106-0.024,0.216-0.061,0.326-0.096
						c5.662-1.838,10.226-7.366,12.392-16.183c4.446-18.097-2.843-43.215-16.287-56.12
						C435.293,192.675,428.31,190.492,422.456,192.183z"/>
					<path id="XMLID_69_" fill="#FF4F34" d="M409.599,208.516c-4.446,18.097,2.843,43.215,16.291,56.108
						c6.756,6.492,13.797,8.651,19.682,6.88c0.106-0.024,0.216-0.061,0.326-0.096c5.662-1.838,10.226-7.366,12.392-16.183
						c4.446-18.097-2.843-43.215-16.287-56.12c-6.709-6.43-13.692-8.613-19.546-6.921
						C416.579,193.868,411.826,199.449,409.599,208.516z"/>
					<path id="XMLID_68_" fill="#FF4F34" d="M409.599,208.516c-4.446,18.097,2.843,43.215,16.291,56.108
						c6.756,6.492,13.797,8.651,19.682,6.88c0.106-0.024,0.216-0.061,0.326-0.096c5.662-1.838,10.226-7.366,12.392-16.183
						c4.446-18.097-2.843-43.215-16.287-56.12c-6.709-6.43-13.692-8.613-19.546-6.921
						C416.579,193.868,411.826,199.449,409.599,208.516z"/>
					<path id="XMLID_67_" fill="#FFDB41" d="M336.354,165.989c0,0,36.065,30.531,50.106,78.876
						c2.758,9.495,4.606,18.361,5.798,26.46c4.876,33.133-5.47,66.022-5.47,66.022c18.086-46.395,58.158-67.618,58.158-67.618
						l-0.007-0.023c5.351-1.566,9.533-6.8,11.534-14.935c1.313-5.357,1.563-11.35,0.887-17.456
						c-0.406-3.862-1.184-7.77-2.291-11.582c-2.856-9.836-7.878-19.043-14.37-25.272c-6.047-5.797-12.383-7.975-17.739-6.432
						l-0.007-0.023C422.953,194.006,396.808,198.506,336.354,165.989z"/>
					<path fill="#FFB71F" d="M449.351,255.119c-11.536,6.971-37.121,19.416-41.217,5.883c-8.754-28.925-24.312-62.805-47.357-80.696
						c-1.107-0.861-1.682-1.937-1.804-3.075c-6.93-3.143-14.459-6.852-22.619-11.241c0,0,36.065,30.531,50.106,78.876
						c2.758,9.495,4.606,18.361,5.798,26.46c4.876,33.133-5.47,66.022-5.47,66.022c18.086-46.395,58.158-67.618,58.158-67.618
						l-0.007-0.023c5.351-1.566,9.533-6.8,11.534-14.935c0.579-2.36,0.939-4.849,1.117-7.412
						C455.508,250.426,452.686,253.104,449.351,255.119z"/>
					<path id="XMLID_66_" fill="#FFDB41" d="M282.92,195.816c-4.636,18.871-4.385,47.274,0.602,68.724l-0.002,0.011
						c6.396,27.474,23.309,61.195,41.279,78.43c32,30.686,63.473,19.91,74.05-23.137c2.421-9.851,3.856-26.89,3.518-37.937
						c-0.859-27.21-9.609-56.397-23.871-79.381c-2.003-3.243-4.116-6.348-6.339-9.316c-0.921-1.236-1.87-2.453-2.829-3.635
						l-0.013-0.002c-1.364-1.685-2.756-3.314-4.188-4.877c-1.493-1.628-3.119-3.095-4.575-4.694
						C325.759,141.798,293.501,152.757,282.92,195.816z"/>
					<path id="XMLID_65_" fill="#FFDB41" d="M285.936,198.708c-5.206,21.188-3.645,46.935,3.044,71.438
						c7.209,26.502,20.396,51.577,37.429,67.91c8.479,8.116,17.308,13.504,25.544,15.514c8.47,2.096,16.06,0.614,22.543-4.373
						c7.596-5.853,13.406-16.22,16.795-30.01c2.367-9.639,3.338-20.226,3.049-31.236c-0.103-4.159-0.389-8.376-0.85-12.622
						c-0.798-7.395-2.113-14.917-3.921-22.32c-0.371-1.525-0.758-3.041-1.16-4.545c-0.663-2.511-1.383-5.021-2.167-7.492
						c-2.641-8.48-5.912-16.736-9.709-24.516c-0.037-0.079-0.097-0.178-0.131-0.271c-2.537-5.179-5.299-10.131-8.268-14.812
						c-2.141-3.365-4.389-6.575-6.732-9.625c-0.979-1.281-1.98-2.526-3.002-3.746c-1.23-1.456-2.484-2.874-3.763-4.257
						c-1.247-1.333-2.52-2.616-3.804-3.859c-8.496-8.162-17.333-13.51-25.563-15.547
						C307.025,159.856,292.321,172.721,285.936,198.708z"/>
					<path id="XMLID_64_" fill="#FFB71F" d="M285.936,198.708c-5.206,21.188-3.645,46.935,3.044,71.438
						c7.209,26.502,20.396,51.577,37.429,67.91c8.479,8.116,17.308,13.504,25.544,15.514c8.47,2.096,16.06,0.614,22.543-4.373
						c7.596-5.853,13.406-16.22,16.795-30.01c2.367-9.639,3.338-20.226,3.049-31.236c-0.103-4.159-0.389-8.376-0.85-12.622
						c-0.798-7.395-2.113-14.917-3.921-22.32c-0.371-1.525-0.758-3.041-1.16-4.545c-0.663-2.511-1.383-5.021-2.167-7.492
						c-2.641-8.48-5.912-16.736-9.709-24.516c-0.037-0.079-0.097-0.178-0.131-0.271c-2.537-5.179-5.299-10.131-8.268-14.812
						c-2.141-3.365-4.389-6.575-6.732-9.625c-0.979-1.281-1.98-2.526-3.002-3.746c-1.23-1.456-2.484-2.874-3.763-4.257
						c-1.247-1.333-2.52-2.616-3.804-3.859c-8.496-8.162-17.333-13.51-25.563-15.547
						C307.025,159.856,292.321,172.721,285.936,198.708z"/>
					<path opacity="0.3" fill="#FFFFFF" d="M393.197,272.982c-0.057-0.437-0.106-0.874-0.164-1.31
						c-0.572,0.176-1.57-0.465-1.898,0.152c-21.349,40.064-73.459,56.697-73.459,56.697c4.15,6.869,13.017,14.7,17.184,16.512
						C374.627,310.977,388.713,291.238,393.197,272.982z"/>
					<path opacity="0.3" fill="#FFFFFF" d="M388.352,272.046c-0.057-0.437-0.577-1.424-1.051-0.909
						c-31.451,34.19-78.695,44.77-78.695,44.77s3.691,6.476,4.916,7.721C355.977,303.199,363.885,301.178,388.352,272.046z"/>
					<g id="XMLID_62_">
						<path fill="#F0A816" d="M331.875,239.342c5.829,4.674,8.885,11.018,11.344,17.928c1.82,5.116,6.522,14.954,4.021,20.874
							c16.164-3.703,34.15-6.333,46.215-3.142c-0.804-7.417-2.154-14.924-3.965-22.332c-0.337-1.409-0.708-2.815-1.085-4.213
							c-0.659-2.51-1.372-5.018-2.162-7.49c-2.646-8.473-5.909-16.724-9.705-24.508c-0.039-0.087-0.097-0.185-0.136-0.273
							c-7.162,11.831-24.35,18.234-44.592,23.113C331.832,239.317,331.854,239.325,331.875,239.342z"/>
					</g>
					<g id="XMLID_61_">
						<path fill="#DB9030" d="M393.455,275.003c-0.38-3.501-0.89-7.023-1.504-10.544c-8.019,1.663-16.113,3.271-24.316,2.403
							c-4.569-0.484-9.326-1.424-12.981-4.41c-2.182-1.781-3.673-4.155-5.185-6.506c-0.761,1.104-1.994,1.913-3.295,1.815
							c-0.235-0.018-0.47-0.031-0.707-0.026c-0.072,0.002-0.246,0.026-0.341,0.036c-0.148,0.04-0.296,0.082-0.442,0.131
							c-0.027,0.009-0.044,0.016-0.068,0.024c-0.116,0.064-0.212,0.098-0.233,0.099c-0.033,0.015-0.068,0.029-0.098,0.044
							c-0.216,0.113-0.426,0.239-0.636,0.361c2.024,5.335,5.915,14.213,3.592,19.714
							C363.404,274.442,381.391,271.812,393.455,275.003z"/>
					</g>
				</g>
				<path id="XMLID_59_" fill="#FFDB41" d="M326.438,247.034c-1.002,4.077-0.845,8.849,0.233,13.482l-0.002,0.003
					c1.383,5.935,4.266,11.64,8.149,15.365c6.913,6.629,14.37,4.463,16.655-4.838c0.522-2.129,0.729-4.444,0.656-6.831
					c-0.186-5.879-2.077-12.186-5.158-17.151c-0.433-0.701-0.889-1.372-1.37-2.013c-0.197-0.267-0.403-0.53-0.61-0.785l-0.002-0.001
					c-0.296-0.364-0.596-0.716-0.905-1.054c-0.322-0.352-0.651-0.692-0.989-1.014C336.183,235.566,328.725,237.73,326.438,247.034z"
					/>
				<path fill="#FFDB41" d="M352.131,264.215c-0.161-5.108-1.612-10.537-4.011-15.13c1.667,5.877,1.713,12.146-0.538,18.098
					c-1.682,4.448-5.609,7.649-10.552,6.437c-2.103-0.515-4.458-1.659-6.443-3.22c1.219,2.081,2.637,3.953,4.232,5.484
					c6.913,6.629,14.37,4.463,16.655-4.838C351.997,268.917,352.204,266.602,352.131,264.215z"/>
			</g>
			<g>
				<path fill="#FF4B5A" d="M621.368,270.409c0.646,3.438,3.957,5.7,7.396,5.052l16.079-3.025c3.438-0.646,5.701-3.958,5.054-7.395
					l-1.659-8.819c-0.646-3.438-3.957-5.701-7.396-5.055l-16.08,3.026c-3.438,0.647-5.7,3.958-5.053,7.396L621.368,270.409z"/>
				<g>
					<path fill="#FFFFFF" d="M628.695,264.536c-0.437-0.482-0.749-1.086-0.879-1.771c-0.373-1.982,0.933-3.89,2.912-4.263
						c1.295-0.244,2.56,0.229,3.384,1.139c0.437-1.147,1.441-2.047,2.736-2.291c1.982-0.373,3.889,0.932,4.262,2.914
						c0.199,1.061-0.082,2.101-0.691,2.896c-0.736,1.174-4.503,6.337-4.503,6.337s-6.003-3.829-6.638-4.376v-0.001l0,0
						c-0.214-0.169-0.411-0.364-0.593-0.58L628.695,264.536z"/>
				</g>
			</g>
			<g>
				<path fill="#0984E3" d="M210.505,418.726c0.667,4.7,5.293,7.93,10.333,7.214l23.571-3.344c5.041-0.714,8.585-5.103,7.917-9.802
					l-1.708-12.051c-0.667-4.697-5.292-7.927-10.334-7.213l-23.571,3.345c-5.04,0.715-8.583,5.102-7.918,9.8L210.505,418.726z"/>
				<g>
					<circle fill="#FBC900" cx="230.518" cy="409.654" r="9.564"/>
					<g>
						<path fill="#37447F" d="M231.153,413.943c-1.854,0.263-3.707-0.195-5.23-1.295l0.667-0.924
							c1.314,0.952,2.916,1.337,4.52,1.077c1.598-0.259,3.003-1.122,3.953-2.438l0.919,0.665c-1.126,1.562-2.794,2.591-4.693,2.896
							C231.243,413.929,231.197,413.936,231.153,413.943z"/>
					</g>
					
						<ellipse transform="matrix(-0.9901 0.1407 -0.1407 -0.9901 507.9077 778.2363)" fill="#37447F" cx="226.445" cy="407.072" rx="1.728" ry="2.17"/>
					
						<ellipse transform="matrix(-0.9901 0.1402 -0.1402 -0.9901 521.7505 775.3757)" fill="#37447F" cx="233.572" cy="406.06" rx="1.728" ry="2.171"/>
				</g>
			</g>
			<g>
				<path fill="#FF4B5A" d="M549.877,453.104c-0.032-1.095,0.228-2.213,0.812-3.233c1.69-2.948,5.453-3.968,8.399-2.277
					c1.929,1.105,3.032,3.096,3.092,5.164c1.816-0.992,4.091-1.046,6.018,0.06c2.947,1.691,3.967,5.45,2.275,8.4
					c-0.906,1.579-2.406,2.604-4.059,2.957c-2.229,0.699-12.71,3.195-12.71,3.195s-3.507-11.481-3.722-12.877v-0.002l0,0
					c-0.087-0.449-0.127-0.917-0.124-1.391L549.877,453.104z"/>
			</g>
			<g>
				<path fill="#FF4B5A" d="M650.324,224.739c-0.237-1.113-0.181-2.3,0.229-3.449c1.176-3.322,4.824-5.061,8.143-3.884
					c2.173,0.769,3.667,2.594,4.113,4.692c1.668-1.35,3.977-1.827,6.148-1.058c3.32,1.177,5.059,4.823,3.881,8.146
					c-0.631,1.778-1.97,3.103-3.59,3.77c-2.145,1.128-12.371,5.623-12.371,5.623s-5.709-11.06-6.186-12.443l-0.002-0.002l0,0
					c-0.172-0.443-0.299-0.913-0.384-1.396L650.324,224.739z"/>
			</g>
		</g>
		<g>
			<path fill="#FFB71F" d="M401.023,507.883l-0.015,5.299c-0.013,5.266-3.475,10.523-10.391,14.542
				c-13.91,8.084-36.552,8.09-50.554,0.006c-7.048-4.07-10.567-9.412-10.552-14.745l0.014-5.299
				c-0.015,5.333,3.504,10.677,10.554,14.745c14,8.084,36.643,8.079,50.553-0.005C397.549,518.408,401.009,513.149,401.023,507.883z
				"/>
			<path fill="#FFDB57" d="M390.477,493.143c14,8.084,14.076,21.195,0.156,29.283c-13.91,8.084-36.553,8.089-50.553,0.005
				c-14.01-8.088-14.076-21.204-0.166-29.288C353.833,485.056,376.467,485.056,390.477,493.143z"/>
			<path fill="#FFB71F" d="M370.124,507.398c3.377,3.135,6.764,6.78,1.206,10.01c-4.107,2.387-10.665,2.708-17.648-0.454
				l-4.42,2.567l-3.975-2.295l4.296-2.497c-3.687-2.404-6.243-5.295-6.728-7.542l6.999-1.538c0.532,1.999,2.315,4.271,4.898,6.077
				l6.588-3.829c-3.343-3.162-6.806-6.853-1.166-10.13c4.181-2.43,10.831-2.746,17.806,0.459l4.378-2.544l3.977,2.295l-4.296,2.497
				c2.731,1.854,4.836,3.986,5.643,6.047l-6.832,1.673c-0.888-1.83-2.27-3.412-4.021-4.691L370.124,507.398z M367.138,504.528
				l5.599-3.254c-2.569-0.939-4.554-0.756-5.857,0C365.503,502.074,365.947,503.202,367.138,504.528 M358.886,513.929
				c2.419,0.892,4.313,0.801,5.575,0.067c1.385-0.805,0.974-1.902-0.134-3.229L358.886,513.929"/>
		</g>
		<g>
			<path fill="#FFB71F" d="M383.782,496.617l-0.016,5.297c-0.016,5.267-3.476,10.525-10.392,14.545
				c-13.911,8.084-36.553,8.089-50.554,0.005c-7.049-4.07-10.568-9.412-10.553-14.746l0.015-5.298
				c-0.015,5.333,3.503,10.676,10.553,14.745c14.001,8.084,36.643,8.079,50.553-0.005
				C380.305,507.14,383.767,501.882,383.782,496.617z"/>
			<path fill="#FFDB57" d="M373.232,481.876c14.002,8.084,14.076,21.194,0.157,29.283c-13.91,8.084-36.552,8.089-50.553,0.005
				c-14.01-8.089-14.076-21.204-0.165-29.288C336.59,473.79,359.223,473.788,373.232,481.876z"/>
			<path fill="#FFB71F" d="M352.88,496.131c3.376,3.135,6.764,6.78,1.206,10.01c-4.105,2.387-10.664,2.708-17.648-0.454
				l-4.419,2.568l-3.976-2.296l4.296-2.497c-3.687-2.405-6.242-5.295-6.728-7.541l6.999-1.539c0.533,1.998,2.315,4.271,4.898,6.077
				l6.589-3.829c-3.344-3.163-6.806-6.853-1.166-10.13c4.181-2.43,10.83-2.746,17.806,0.459l4.377-2.544l3.977,2.296l-4.296,2.495
				c2.732,1.854,4.836,3.987,5.643,6.048l-6.832,1.673c-0.887-1.83-2.269-3.412-4.021-4.691L352.88,496.131z M349.894,493.261
				l5.599-3.254c-2.569-0.938-4.554-0.756-5.856,0C348.259,490.808,348.703,491.933,349.894,493.261 M341.641,502.663
				c2.421,0.892,4.315,0.8,5.577,0.067c1.385-0.805,0.974-1.902-0.135-3.229L341.641,502.663"/>
		</g>
		<g>
			<path fill="#FFB71F" d="M113.888,332.231l-0.015,5.299c-0.016,5.266-3.476,10.525-10.392,14.543
				c-13.911,8.084-36.553,8.089-50.553,0.005c-7.049-4.068-10.568-9.412-10.553-14.745l0.015-5.299
				c-0.015,5.334,3.504,10.676,10.552,14.747c14.002,8.082,36.644,8.078,50.555-0.006
				C110.411,342.756,113.873,337.497,113.888,332.231z"/>
			<path fill="#FFDB57" d="M103.339,317.493c14.002,8.084,14.076,21.193,0.157,29.282c-13.911,8.084-36.553,8.088-50.555,0.006
				c-14.01-8.09-14.074-21.204-0.165-29.288C66.696,309.404,89.331,309.404,103.339,317.493z"/>
			<path fill="#FFB71F" d="M82.986,331.748c3.376,3.133,6.764,6.78,1.206,10.01c-4.105,2.387-10.664,2.707-17.647-0.456l-4.42,2.569
				l-3.976-2.295l4.296-2.497c-3.687-2.406-6.242-5.295-6.726-7.542l6.997-1.539c0.533,1.998,2.315,4.269,4.899,6.076l6.588-3.829
				c-3.344-3.162-6.806-6.853-1.166-10.129c4.181-2.43,10.83-2.746,17.806,0.459l4.377-2.544l3.976,2.295l-4.296,2.496
				c2.733,1.854,4.838,3.987,5.643,6.047l-6.832,1.672c-0.886-1.831-2.269-3.411-4.022-4.69L82.986,331.748z M80,328.877
				l5.598-3.253c-2.569-0.939-4.553-0.758-5.856,0C78.365,326.423,78.809,327.549,80,328.877 M71.747,338.279
				c2.421,0.891,4.315,0.8,5.577,0.066c1.385-0.805,0.973-1.902-0.134-3.229L71.747,338.279"/>
		</g>
		<g>
			<g>
				<g>
					<polygon fill="#00AB97" points="656.512,361.31 656.254,451.829 629.958,467.111 630.215,376.591 					"/>
					<polygon fill="#00CCB4" points="630.215,376.591 629.958,467.111 603.489,451.829 603.747,361.31 					"/>
					<polygon fill="#00F2D6" points="656.512,361.31 630.215,376.591 603.747,361.31 630.043,346.028 					"/>
				</g>
				<g>
					<polygon fill="#9479FF" points="613.306,415.262 613.136,475.607 586.839,490.89 587.01,430.542 					"/>
					<polygon fill="#8659FF" points="587.01,430.542 586.839,490.89 560.371,475.607 560.541,415.262 					"/>
					<polygon fill="#A892FF" points="613.306,415.262 587.01,430.542 560.541,415.262 586.838,399.979 					"/>
				</g>
				<g>
					<polygon fill="#FFC64D" points="572.165,468.553 572.079,498.726 545.782,514.008 545.87,483.834 					"/>
					<polygon fill="#FFDB57" points="545.87,483.834 545.782,514.008 519.315,498.726 519.4,468.553 					"/>
					<polygon fill="#FFEA9E" points="572.165,468.553 545.87,483.834 519.4,468.553 545.697,453.27 					"/>
				</g>
			</g>
			<g>
				<path fill="#FFB71F" d="M674.319,282.536c-8.162-4.712-15.562-5.147-20.905-2.044l-5.308,3.085
					c5.343-3.105,12.744-2.67,20.907,2.042c16.23,9.371,29.341,32.092,29.287,50.731c-0.026,9.266-3.296,15.785-8.57,18.849
					l5.307-3.084c5.275-3.065,8.545-9.584,8.571-18.849C703.662,314.626,690.551,291.907,674.319,282.536z"/>
				<path fill="#FFDB57" d="M669.014,285.619c16.23,9.371,29.341,32.092,29.287,50.731c-0.054,18.651-13.249,26.171-29.479,16.8
					c-16.222-9.365-29.342-32.08-29.289-50.731C639.585,283.781,652.791,276.253,669.014,285.619z"/>
				<path fill="#FFB71F" d="M669.728,317.602c5.104,4.317,10.703,9.509,10.682,16.956c-0.016,5.503-3.519,8.238-10.743,5.075
					l-0.017,5.921l-4.605-2.658l0.017-5.757c-4.549-2.946-8.918-7.107-11.442-10.844l2.548-4.991
					c2.303,3.287,5.606,6.634,8.913,8.908l0.024-8.829c-5.1-4.372-10.798-9.62-10.775-17.177c0.016-5.602,3.577-8.36,10.839-5.118
					l0.018-5.868l4.604,2.66l-0.016,5.757c3.441,2.307,6.805,5.31,9.327,8.617l-2.324,5.163c-2.343-2.878-4.726-5.161-7.021-6.798
					L669.728,317.602z M665.126,313.616l0.021-7.502c-2.434-0.774-3.411,0.201-3.415,1.946
					C661.727,309.905,663.109,311.71,665.126,313.616 M669.686,332.66c2.3,0.741,3.312-0.046,3.318-1.737
					c0.006-1.854-1.329-3.62-3.296-5.555L669.686,332.66"/>
			</g>
		</g>
		<g>
			<path fill="#0F236C" d="M463.286,571.842c0,0-2.859,3.449-4.501,1.729c-1.641-1.717-0.267-4.538-0.267-4.538l-8.273,6.275
				c0,0-4.196,4.689-2.066,8.487s8.268-1.451,8.268-1.451L463.286,571.842z"/>
			<path fill="#0F236C" d="M465.836,543.736c0,0,1.119-2.1,0.237-3.807c-0.884-1.707-5.503,0.301-5.503,0.301l-9.326,4.583
				c0,0-4.324,2.686-3.536,6.118c0.789,3.435,6.748,0.756,6.748,0.756L465.836,543.736z"/>
			<path fill="#E84056" d="M530.426,502.167l-24.071,15.613c-4.74-0.154-12.041-7.111-20.739-10.979l-5.595-12
				C485.813,487.065,505.62,496.144,530.426,502.167z"/>
			<path fill="#E84056" d="M530.426,502.167l-18.114,4.384c-4.152,2.197-25.886,33.082-26.006,33.267l9.52,4.653
				C515.842,524.675,533.637,520.324,530.426,502.167z"/>
			<path fill="#0F236C" d="M512.684,461.356c-1.533,1.433-12.734,10.695-17.898,13.814c-2.172,1.312-8.696-4.076-6.818-5.041
				c11.085-5.685,16.87-25.573,29.107-19.215C519.104,451.968,514.216,459.923,512.684,461.356z"/>
			<path fill="#0F236C" d="M474.741,493.032c4.173-10.317,6.419-18.718,13.386-23.224c2.466-1.593,10.539,2.412,9.451,3.51
				c-4.927,4.976-16.71,13.322-16.603,20.331C481.003,495.427,474.202,494.362,474.741,493.032z"/>
			<path fill="#0F236C" d="M517.074,450.915c-2.31-1.2-4.391-1.463-6.32-1.064c-0.012,0.275-0.055,0.564-0.146,0.873
				c-1.043,3.538-1.98,7.171-3.902,10.354c-2.038,3.373-4.967,5.7-8.007,8.127c-4.152,3.316-8.124,6.849-11.97,10.516
				c-1.684,1.604-3.84,3.244-5.202,5.14c-1.305,1.818-1.525,4.089-1.884,6.235c-0.422,2.529-2.86,3.209-4.708,2.495
				c1.113,1.022,6.063,1.577,6.04,0.06c-0.107-7.009,11.676-15.355,16.603-20.331l0,0c5.627-3.962,13.811-10.753,15.105-11.962
				C514.216,459.923,519.104,451.968,517.074,450.915z"/>
			<path fill="#0F236C" d="M542.316,459.844c0,0-3.832-5.212-11.317-8.368c-10.171-4.288-20.382-2.02-20.475-1.772
				c-5.991,15.978-3.186,25.647-5.176,36.213c-1.522,8.086-2.873,8.516-2.873,8.516c-0.009-0.042,10.152,2.799,9.836,12.119
				c-0.302,8.89,10.201,13.023,13.452,12.233c8.262-2.005,7.592-12.128,7.579-12.953
				C533.309,503.589,542.316,459.844,542.316,459.844z"/>
			<path fill="#0F236C" d="M542.316,459.844c0,0-3.832-5.212-11.317-8.368c-1.872-0.79-3.747-1.355-5.559-1.754
				c5.916,4.758,10.443,6.334,15.254,11.214c2.439,2.476-6.499,14.803-7.169,18.2c-0.594,3.008-1.559,6.714-0.31,9.662
				c1.739,4.1-4.723,6.507-6.449,2.435c-0.966-2.274-1.171-4.728-1.008-7.217c-0.111-0.003-0.224-0.007-0.34-0.02
				c-2.293-0.242-5.028,0.343-6.275,2.505c-1.284,2.227,0.025,4.507,1.357,6.346c2.697,3.725,6.078,7.113,7.335,11.667
				c1.146,4.149,0.415,10.553-4.102,12.446c-1.438,0.604-2.91,0.638-4.354,0.34c2.518,1.307,5.056,1.808,6.383,1.484
				c8.262-2.005,7.592-12.128,7.579-12.953C533.309,503.589,542.316,459.844,542.316,459.844z"/>
			<path fill="#0F236C" d="M533.604,469.5c-0.408,2.407-2.311,19.201-2.159,26.189c0.063,2.941,8.582,5.668,8.374,3.236
				c-1.224-14.342,13.243-32.898,0.609-40.465C538.336,457.207,534.013,467.094,533.604,469.5z"/>
			<path fill="#0F236C" d="M540.429,458.46c-0.467-0.28-1.046-0.002-1.668,0.622c1.983,1.565,3.519,3.543,4.096,6.204
				c0.763,3.518-0.245,7.056-1.011,10.483c-0.616,2.753-1.017,5.536-1.582,8.297c-0.381,1.863-0.788,4.046-2.37,5.297
				c-2.937,2.326-5.03,0.181-6.093-2.413c-0.248,3.38-0.404,6.543-0.355,8.738c0.063,2.941,8.582,5.668,8.374,3.236
				C538.596,484.583,553.062,466.027,540.429,458.46z"/>
			<path fill="#0F236C" d="M529.376,494.45c-0.409,2.405,1.343,6.75,3.496,7.897c2.596,1.384,7.204-0.995,6.947-3.422
				c-0.767-7.297-4.999-3.553-6.692-8.391C532.322,488.231,529.783,492.044,529.376,494.45z"/>
			<path fill="#FDC8A8" d="M530.04,486.466l-0.218-5.107c-0.025-0.602,0.442-1.11,1.044-1.136s1.11,0.441,1.136,1.043l1.125,9.269
				c0.026,0.602-1.469-2.201-2.07-2.176S530.065,487.068,530.04,486.466z"/>
			<path fill="#FFFFFF" d="M518.295,487.92c-0.308,0.693,0.009,1.513,0.701,1.819l6.694,2.966c0.693,0.307,1.512-0.009,1.819-0.702
				l5.622-12.688c0.308-0.692-0.009-1.512-0.702-1.819l-6.693-2.965c-0.693-0.308-1.512,0.009-1.819,0.702L518.295,487.92z"/>
			<path fill="#FDC8A8" d="M520.17,483.691c-2.125,2.953,8.81,14.179,10.98,11.26c4.541-6.101,0.145-6.811-2.074-9.693
				C525.646,480.803,522.293,480.738,520.17,483.691z"/>
			<g>
				<path fill="#FDC8A8" d="M532.129,454.451c-0.204,1.913-2.646,2.656-5.8,2.294c0,0-6.048-1.026-5.615-3.581l2.048-14.397
					c0.206-1.908,2.408-3.221,5.562-2.865l0,0c3.149,0.355,4.514,2.083,4.312,4.002L532.129,454.451z"/>
			</g>
			<path fill="#FDC8A8" d="M521.606,449.329l10.948-0.9l-0.094,2.35c-0.18,2.803-5.43,4.099-6.647,4.202
				c-1.125,0.098-4.822-1.77-4.79-2.406L521.606,449.329z"/>
			<path fill="#FDC8A8" d="M521.209,436.669l-1.224-0.566c-1.016-0.46-1.845,0.107-1.972,1.275c-0.214,2.004,1.443,2.156,1.37,3.725
				l2.56-0.313L521.209,436.669z"/>
			<path fill="#FDC8A8" d="M535.486,440.208l1.316-0.294c1.092-0.23,1.777,0.5,1.653,1.671c-0.219,2.001-1.79,1.722-2.233,3.457
				l-2.334-0.969L535.486,440.208z"/>
			<path fill="#FDC8A8" d="M519.726,446.061c0.854,2.771,3.113,6.827,5.059,7.158c4.532,0.771,7.781-1.32,9.711-4.435
				c3.098-4.999,4.821-19.145-5.498-19.732c-2.752-0.153-7.426-1.796-8.992,3.234C519.008,435.49,518.765,442.935,519.726,446.061z"
				/>
			<path fill="#FDC8A8" d="M519.726,446.061c-0.961-3.126-0.718-10.571,0.279-13.774c1.566-5.03,6.24-3.388,8.992-3.234
				c1.908,0.109,3.416,0.616,4.592,1.4c-0.101,0.051-0.198,0.107-0.291,0.175c-1.741,1.249-3.296,2.76-4.543,4.506
				c-0.098,0.137-0.474-0.407-0.52-0.274c-0.644,0.448-2.452,1.228-3.092,1.311c-0.954,0.12-4.578-1.021-4.998,0.549
				c-0.864,3.221-0.897,6.082-0.226,8.501c1.72,6.194,4.864,8,4.864,8C522.862,452.777,520.58,448.832,519.726,446.061z"/>
			<g>
				<path fill="#0F236C" d="M527.553,425.974c-0.737-0.898,0.384,3.942-1.73,2.447c-0.947-0.67-3.242-0.072-4.487,2.13l9.559,2.589
					c0.603,0.013,1.205,0.026,1.808,0.061c1.418,0.076,2.624,1.322,2.793,2.874c0.808-0.41,1.616-0.813,2.412-1.288
					C537.644,426.228,530.08,429.059,527.553,425.974z"/>
			</g>
			<path fill="#0F236C" d="M521.823,426.151c-0.348,1.067,0.566,2.521,2.039,3.248c1.472,0.727,4.056-0.63,4.406-1.697
				c0.346-1.066-1.36-0.168-2.828-1.617C524.229,424.887,522.173,425.083,521.823,426.151z"/>
			<path fill="#0F236C" d="M521.991,434.992c-2.335-0.189-2.764,4.544-2.764,4.544c-0.652-0.102-0.742-3.617,0.073-6.391
				C519.812,431.409,523.679,435.128,521.991,434.992z"/>
			<path fill="#0F236C" d="M521.991,434.992c-2.335-0.189-2.764,4.544-2.764,4.544c-0.652-0.102-0.742-3.617,0.073-6.391
				C519.812,431.409,523.679,435.128,521.991,434.992z"/>
			<path fill="#0F236C" d="M519.394,431.055c-0.29,1.572,0.125,3.331,2.624,4.367c4.484,1.862,5.598-1.151,11.833,0.499
				c0.534,0.141-0.439,1.444,1.246,2.957c1.721,1.545,1.142,4.51,1.142,4.51c0.91,0.02,1.367-6.672,1.497-7.368
				c0.622-3.366-2.979-7.206-8.041-8.575C524.631,426.073,520.019,427.69,519.394,431.055z"/>
			<path fill="#0F236C" d="M536.283,441.448c0-0.008,0.711-5.323,0.623-6.854c-0.123-2.155-0.241-3.657-2.223-4.844
				c-0.96-0.574-3.842-0.931-4.923-1.104c-1.366-0.217-2.149-0.903-3.121-1.816c0.206,0.071,0.405,0.119,0.589,0.155
				c0.032-0.753,0.015-1.388,0.324-1.011c2.527,3.085,10.091,0.254,10.354,8.812c-0.042,0.025-0.084,0.048-0.126,0.072
				c0.035,0.391,0.024,0.779-0.045,1.161c-0.13,0.696-0.587,7.388-1.497,7.368C536.238,443.388,536.33,442.405,536.283,441.448z"/>
			<path fill="#FDC8A8" d="M469.931,559.946c-0.363-0.491-0.644-1.003-0.855-1.525c-2.824,3.295-6.556,7.108-12.146,11.743
				c-0.209,0.173,0.206,2.132,1.856,3.408c1.572,1.217,1.73,0.827,2.002,0.643c5.861-3.975,10.64-7.421,14.629-10.469
				C473.186,562.964,471.167,561.613,469.931,559.946z"/>
			<path fill="#FDC8A8" d="M464.33,528.701c-1.256,3.443-2.632,7.317-4.157,11.711c-0.108,0.31-1.624,0.507-0.042,1.71
				c1.66,1.263,4.234,0.469,4.348,0.222c2.446-5.331,4.656-9.309,6.672-12.487L464.33,528.701z"/>
			<path fill="#E84056" d="M465.367,571.635c26.677-18.483,27.711-24.603,36.903-33.128l-15.965,1.311
				c-11.843,7.784-10.564,12.637-25.472,25.838C460.86,568.211,462.848,570.21,465.367,571.635z"/>
			<path fill="#E84056" d="M466.566,539.48c9.319-19.206,14.481-18.884,19.049-32.678l-5.595-12
				c-4.893,8.116-9.01,10.598-19.869,41.216C462.091,537.727,464.229,538.794,466.566,539.48z"/>
			<path fill="#FDC8A8" d="M482.25,501.434c-2.686,1.493-9.768-6.503-7.102-8.032c5.574-3.192,5.413-0.022,7.327,1.607
				C485.436,497.53,484.936,499.941,482.25,501.434z"/>
			<circle fill="#5263A0" cx="526.913" cy="480.421" r="1.193"/>
		</g>
		<g>
			<g>
				<path fill="#0984E3" d="M150.171,121.116c2.948,2.63,7.471,2.374,10.104-0.575l12.309-13.79
					c2.633-2.95,2.375-7.473-0.572-10.105l-7.563-6.751c-2.949-2.63-7.472-2.374-10.104,0.574l-12.31,13.792
					c-2.633,2.95-2.375,7.473,0.574,10.105L150.171,121.116z"/>
			</g>
			<g>
				<path fill="#FFFFFF" d="M159.646,95.556c-0.24,0.259-0.226,0.663,0.033,0.904l6.299,5.85l-6.904,7.434l0.105-0.403
					c0.09-0.342-0.114-0.691-0.456-0.781c-0.341-0.09-0.692,0.115-0.781,0.456l-0.752,2.868c-0.002,0.009-0.002,0.019-0.004,0.029
					c-0.004,0.018-0.008,0.033-0.01,0.051c-0.001,0.01-0.002,0.02-0.002,0.03c-0.001,0.015-0.001,0.031-0.001,0.047
					c0,0.016-0.001,0.031,0,0.046c0.001,0.011,0.001,0.021,0.003,0.032c0.002,0.015,0.005,0.03,0.007,0.046
					c0.004,0.016,0.006,0.032,0.01,0.047c0.002,0.006,0.002,0.014,0.005,0.019c0,0.005,0.003,0.007,0.004,0.013
					c0.005,0.013,0.01,0.025,0.015,0.038c0.006,0.017,0.014,0.033,0.022,0.048c0.005,0.01,0.009,0.02,0.014,0.03
					c0.008,0.01,0.015,0.021,0.021,0.032c0.009,0.014,0.019,0.029,0.029,0.043c0.008,0.009,0.014,0.018,0.021,0.027
					c0.01,0.01,0.02,0.021,0.03,0.03c0.008,0.008,0.013,0.016,0.021,0.023c0.005,0.005,0.01,0.008,0.015,0.013
					c0.007,0.005,0.015,0.013,0.023,0.019c0.013,0.009,0.025,0.017,0.038,0.027c0.015,0.009,0.029,0.019,0.043,0.028
					c0.008,0.004,0.015,0.008,0.023,0.013c0.013,0.006,0.028,0.011,0.041,0.018c0.017,0.008,0.033,0.014,0.05,0.021
					c0.01,0.002,0.019,0.005,0.028,0.008c0.003,0.002,0.007,0.003,0.013,0.005c0.007,0.002,0.015,0,0.021,0.002
					c0.019,0.005,0.038,0.009,0.057,0.012c0.02,0.002,0.041,0.003,0.061,0.003c0.006,0,0.013,0,0.019,0
					c0.007,0.001,0.015,0.003,0.022,0.003c0.008,0,0.014-0.003,0.022-0.003c0.019,0,0.038-0.005,0.057-0.007
					c0.022-0.002,0.045-0.008,0.068-0.013c0.002-0.001,0.005-0.001,0.008-0.002c0.003,0,0.007,0,0.011-0.003l0,0l3.011-0.911
					c0.113-0.036,0.208-0.097,0.283-0.178c0.149-0.16,0.212-0.395,0.143-0.621c-0.103-0.339-0.459-0.529-0.797-0.426l-0.747,0.227
					l7.462-8.034c0.24-0.258,0.226-0.664-0.033-0.904l-6.768-6.285C160.291,95.282,159.886,95.297,159.646,95.556z"/>
				<path fill="#FFFFFF" d="M156.427,100.944c-0.089,0.343,0.114,0.692,0.457,0.782c0.236,0.061,0.476-0.017,0.631-0.184
					c0.07-0.075,0.122-0.167,0.15-0.273l0.751-2.867c0.001-0.002,0.001-0.005,0.001-0.007c0.002-0.008,0.002-0.017,0.005-0.025
					c0.004-0.021,0.008-0.042,0.009-0.063c0.003-0.021,0.004-0.041,0.004-0.061v-0.002c0.001-0.008,0.002-0.015,0.001-0.021
					c0-0.012-0.002-0.024-0.004-0.037c-0.001-0.02-0.004-0.042-0.008-0.063c-0.003-0.017-0.007-0.033-0.013-0.051
					c-0.001-0.005-0.001-0.01-0.002-0.015c-0.001-0.004-0.002-0.008-0.005-0.01c-0.004-0.014-0.009-0.028-0.014-0.041
					c-0.006-0.015-0.014-0.032-0.021-0.048c-0.005-0.009-0.009-0.019-0.014-0.028c-0.006-0.013-0.015-0.023-0.021-0.033
					c-0.01-0.015-0.019-0.029-0.03-0.043c-0.006-0.008-0.013-0.018-0.019-0.027c-0.01-0.011-0.021-0.02-0.031-0.03
					c-0.007-0.006-0.013-0.015-0.02-0.021c-0.005-0.005-0.01-0.008-0.017-0.013c-0.008-0.008-0.014-0.014-0.021-0.021
					c-0.012-0.01-0.025-0.018-0.038-0.025c-0.014-0.01-0.029-0.02-0.043-0.028c-0.007-0.005-0.015-0.01-0.022-0.014
					c-0.013-0.006-0.027-0.011-0.041-0.016c-0.016-0.008-0.033-0.016-0.049-0.021c-0.01-0.004-0.019-0.008-0.029-0.01
					c-0.004,0-0.007-0.002-0.011-0.004c-0.01-0.002-0.019-0.002-0.029-0.003c-0.017-0.004-0.033-0.008-0.049-0.01
					c-0.012-0.002-0.023-0.002-0.035-0.004c-0.014-0.001-0.029-0.001-0.044-0.001c-0.015,0-0.03,0-0.045,0
					c-0.012,0.003-0.021,0.003-0.033,0.004c-0.015,0.001-0.03,0.004-0.045,0.008c-0.016,0.004-0.032,0.006-0.047,0.011
					c-0.007,0-0.013,0-0.02,0.002l-3.011,0.914c-0.339,0.102-0.529,0.459-0.428,0.797c0.103,0.338,0.46,0.528,0.798,0.427
					l0.747-0.226l-7.462,8.033c-0.241,0.259-0.226,0.664,0.033,0.904l6.768,6.286c0.258,0.24,0.663,0.225,0.904-0.034
					c0.24-0.258,0.225-0.664-0.034-0.904l-6.298-5.851l6.903-7.431L156.427,100.944z"/>
			</g>
		</g>
		<g>
			<path fill="#FF4B5A" d="M84.682,51.047c-1.078-0.359-2.074-1.011-2.858-1.944c-2.269-2.697-1.919-6.723,0.776-8.989
				c1.764-1.483,4.094-1.849,6.13-1.168c-0.319-2.123,0.439-4.354,2.202-5.837c2.697-2.267,6.721-1.919,8.989,0.779
				c1.214,1.445,1.677,3.27,1.431,5.004c-0.113,2.419-1.418,13.513-1.418,13.513s-12.428-0.679-13.862-0.969h-0.002l0,0
				c-0.469-0.076-0.939-0.203-1.399-0.375L84.682,51.047z"/>
		</g>
		<path fill="#0984E3" d="M161.828,48.915l-4.278-0.056l0.944-3.039c0.683-2.123-0.251-3.095-1.659-3.28
			c-0.151-0.021-0.589,0.381-0.661,0.589c-0.918,2.624-3.041,5.318-6.411,6.898l-4.201,1.305c-0.039,3.004-0.111,8.496-0.111,8.496
			c8.075,0.549,7.51,2.29,12.894,2.443c3.081,0.089,2.289-1.581,3.968-3.094c1.535-1.383,1.892-2.643,1.911-4.077l0.854-2.063
			C165.117,50.034,164.563,48.953,161.828,48.915z"/>
		<path fill="#4A38CB" d="M76.697,113.502c0,0,7.073,1.932,5.958,10.396l-1.216,7.583c0,0,3.954-8.874,2.739-12.776
			C82.965,114.803,81.106,113.159,76.697,113.502z"/>
		<path fill="#4A38CB" d="M102.516,128.373c0,0-21.377,0.834-27.335,6.358C75.181,134.731,89.12,130.463,102.516,128.373z"/>
		<path fill="#4A38CB" d="M102.516,109.762c0,0,3.477,4.902,3.615,16.75C106.131,126.512,108.591,115.51,102.516,109.762z"/>
	</g>
</g>
</svg>
